<!-- Generated by IcoMoon.io -->
<svg version="1.1" xmlns="http://www.w3.org/2000/svg" width="21" height="32" viewBox="0 0 21 32">
<title>codingPhase</title>
<path fill="#a2ce53" d="M0.002 11.671c-0.001 0.018-0.001 0.039-0.001 0.060 0 0.365 0.158 0.693 0.409 0.92l0.001 0.001 0.347 0.315c0.058 0.052 0.122 0.099 0.19 0.141l0.006 0.003-0.543-0.498c-0.251-0.228-0.408-0.556-0.408-0.921 0-0.008 0-0.016 0-0.023l-0 0.001z"></path>
<path fill="#a2ce53" d="M2.393 10.426l1.288 1.162 8.315-9.196c0.199-0.22 0.321-0.513 0.321-0.835 0-0.365-0.158-0.694-0.408-0.922l-0.001-0.001-0.349-0.314c-0.22-0.199-0.513-0.321-0.835-0.321-0.365 0-0.694 0.158-0.922 0.408l-0.001 0.001-8.999 9.958c0.208-0.161 0.472-0.258 0.759-0.258 0.32 0 0.612 0.121 0.832 0.319l-0.001-0.001z"></path>
<path fill="#a2ce53" d="M0.803 10.361c-0.061 0.047-0.116 0.097-0.165 0.152l-0.001 0.001-0.314 0.349c-0.194 0.213-0.315 0.496-0.32 0.807v0.001c0.014-0.301 0.133-0.571 0.321-0.778l-0.001 0.001z"></path>
<path fill="#a2ce53" d="M12.879 19.906l-9.198-8.317-1.162 1.29c-0.229 0.252-0.558 0.409-0.923 0.409-0.236 0-0.457-0.066-0.646-0.18l0.006 0.003 9.941 8.989c0.22 0.199 0.514 0.322 0.836 0.322 0.366 0 0.695-0.158 0.923-0.409l0.001-0.001 0.314-0.347c0.199-0.22 0.32-0.513 0.32-0.834 0-0.367-0.158-0.696-0.41-0.924l-0.001-0.001z"></path>
<path fill="#5ebb49" d="M2.516 12.879l1.162-1.29-1.288-1.162c-0.22-0.199-0.513-0.321-0.834-0.321-0.286 0-0.549 0.096-0.759 0.258l0.003-0.002-0.481 0.533c-0.199 0.215-0.321 0.503-0.321 0.82 0 0.36 0.158 0.684 0.408 0.905l0.001 0.001 0.543 0.498c0.182 0.11 0.402 0.175 0.637 0.175 0.369 0 0.7-0.16 0.928-0.415l0.001-0.001z"></path>
<path fill="#8b4a9e" d="M21.025 20.341c0.004 0.038 0.007 0.082 0.007 0.127 0 0.33-0.129 0.629-0.339 0.851l0.001-0.001-0.498 0.533c0.067-0.051 0.127-0.106 0.182-0.165l0.001-0.001 0.32-0.34c0.208-0.222 0.336-0.522 0.336-0.851 0-0.054-0.003-0.107-0.010-0.159l0.001 0.006z"></path>
<path fill="#8b4a9e" d="M20.12 19.099l-9.765-9.2c-0.222-0.21-0.523-0.339-0.854-0.339-0.356 0-0.678 0.15-0.905 0.39l-0.001 0.001-0.322 0.342c-0.21 0.222-0.339 0.523-0.339 0.853 0 0.357 0.15 0.679 0.391 0.906l0.001 0.001 9.019 8.501 1.188-1.263c0.228-0.242 0.55-0.393 0.907-0.393 0.253 0 0.488 0.075 0.684 0.205l-0.005-0.003z"></path>
<path fill="#8b4a9e" d="M21.025 20.341c-0.030-0.31-0.172-0.582-0.383-0.781l-0.001-0.001-0.342-0.32c-0.053-0.051-0.112-0.097-0.175-0.137l-0.005-0.003 0.523 0.498c0.203 0.191 0.342 0.448 0.381 0.737l0.001 0.006z"></path>
<path fill="#8b4a9e" d="M18.615 21.745l-1.27-1.192-8.498 9.027c-0.21 0.222-0.339 0.523-0.339 0.853 0 0.357 0.15 0.679 0.391 0.906l0.001 0.001 0.34 0.322c0.223 0.21 0.523 0.338 0.854 0.338 0.357 0 0.679-0.15 0.906-0.391l0.001-0.001 9.191-9.749c-0.2 0.143-0.45 0.229-0.72 0.229-0.333 0-0.636-0.131-0.859-0.344l0 0z"></path>
<path fill="#603294" d="M21.025 20.341c-0.039-0.298-0.177-0.558-0.381-0.75l-0.001-0.001-0.523-0.498c-0.191-0.125-0.424-0.199-0.675-0.199-0.356 0-0.677 0.15-0.904 0.389l-0.001 0.001-1.195 1.27 1.263 1.192c0.222 0.21 0.523 0.339 0.854 0.339 0.272 0 0.524-0.087 0.728-0.235l-0.004 0.003 0.498-0.533c0.214-0.222 0.346-0.525 0.346-0.858 0-0.042-0.002-0.083-0.006-0.124l0 0.005z"></path>
</svg>
