<svg id="Layer_1" data-name="Layer 1" xmlns="http://www.w3.org/2000/svg" viewBox="0 0 136.54 144"><defs><style>.cls-1{fill:#deb471;}.cls-1,.cls-10,.cls-11,.cls-12,.cls-13,.cls-14,.cls-15,.cls-16,.cls-17,.cls-18,.cls-19,.cls-2,.cls-20,.cls-21,.cls-22,.cls-23,.cls-24,.cls-25,.cls-26,.cls-27,.cls-29,.cls-3,.cls-30,.cls-31,.cls-32,.cls-33,.cls-34,.cls-35,.cls-4,.cls-5,.cls-6,.cls-7,.cls-8,.cls-9{fill-rule:evenodd;}.cls-2{fill:#725845;}.cls-3{fill:#a0622d;}.cls-4{fill:#e69f30;}.cls-5{fill:#fff570;}.cls-6{fill:#b1632b;}.cls-28,.cls-7{fill:#8b482a;}.cls-8{fill:#a3c73b;}.cls-9{fill:#e2de32;}.cls-10{fill:#f0ec75;}.cls-11{fill:#becf29;}.cls-12{fill:#df8627;}.cls-13{fill:#231f20;}.cls-14{fill:#ffd87d;}.cls-15{fill:#b0612e;}.cls-16{fill:#eba921;}.cls-17{fill:#63b442;}.cls-18{fill:#c8dd69;}.cls-19{fill:#008842;}.cls-20{fill:#db8129;}.cls-21{fill:#edb920;}.cls-22{fill:#fffbcc;}.cls-23{fill:#edb97a;}.cls-24{fill:#ab7135;}.cls-25{fill:#ed1c24;}.cls-26{fill:#d51920;}.cls-27{fill:#ba141a;}.cls-29{fill:#fff;}.cls-30{fill:#529546;}.cls-31{fill:#fdbe57;}.cls-32{fill:#c6161d;}.cls-33{fill:#f1583e;}.cls-34{fill:#f58461;}.cls-35{fill:#fdd7ca;}</style></defs><path class="cls-1" d="M245.08,333.43c10.37,12,8.64,21.53,17.21,25s14,3.67,11.45-.57-27.22-31.32-27.22-31.32Z" transform="translate(-238.24 -324.5)"/><path class="cls-1" d="M352.86,465.55c-.57-1.44-24.12-23.76-27.28-27.79s-23.69-32.69-30.32-40.47-17.2-25.13-10.29-19.44,56.45,59.33,60.69,64.23,14.91,20.3,14.91,20.3Z" transform="translate(-238.24 -324.5)"/><path class="cls-2" d="M265.46,353.52c.28,4.6,16.92,25.77,18.64,27.79s8.86,16,20.38,32,12.82,14.9,15.7,18.07,4.82,9.22,6.84,9.5,10.36,2.88,11.8,7.13,14.33,20.09,14.33,20.09h-1.73s-42.76-37.87-63.28-66.24-26.72-40.39-30.46-41.83,2.59-2.81,2.59-2.81Z" transform="translate(-238.24 -324.5)"/><path class="cls-3" d="M238.24,332.28c8.28,7.48,11.16,25.84,14,22.68s-6.34-21.53.86-18.94,10.59,6.26,8,10.87-8.86,12.6-6.27,11.81,12.89-13.25,15.77-8.93,5.11,7.2,5.11,7.2-3.38-10.37-6.84-14.11-12.38-9.14-14.33-12.89a20.29,20.29,0,0,0-4-5.47s5.19,7.78-3.17,7.78Z" transform="translate(-238.24 -324.5)"/><path class="cls-4" d="M333.06,418c1.16,2.59-3.45-1.44-3.16,2.59s4,6.05,4,6.05-6.63,3.38-10,4.24-6.05,5.19-1.15,5.48,8.57-2,10-2-1.16,2.88-5.76,6.34-9.15,7.12-4.54,8.56,8.28-4.32,14-9.43,8-12.38,10.3-10.37,14-5.68,11.8-10.29-6.62-6.91-13.24-6.34S333.06,418,333.06,418Z" transform="translate(-238.24 -324.5)"/><path class="cls-5" d="M350.27,415.36c.58.87,5.19,2.88,4.32,6.63s-4,5.69-1.44,5.4,8.57-6.84,5.47-9.72C355.46,412.92,349.7,414.5,350.27,415.36Z" transform="translate(-238.24 -324.5)"/><path class="cls-6" d="M321.54,432.07c-1.94,1.58-2.44,4,1.23,4.25,4.82.28,8.57-2,10-2s-1.16,2.88-5.76,6.34-9.15,7.12-4.54,8.56c3.82,1.23,7.06-2.59,11.38-6.91a3.7,3.7,0,0,0-3.1,1.51c-2.88,3.1-6.05,1.95-4.61-.28s16.63-14.69,19.8-15.27-4-.57-7.13-1.94-7.2-3.75-7.2-3.75,4.61,4.61,4.61,6-4.89,3.46-8.93,4.9-3.38.86-5.11-.29Z" transform="translate(-238.24 -324.5)"/><path class="cls-7" d="M327.59,435.81c2.45-.57,4.25-1.51,5.19-1.51.21,0,.36.07.36.22l2.52-2.24-8.07,3.53Zm12.67-4.17a22.51,22.51,0,0,1,5.69-3.39c3.17-.57-4-.57-7.13-1.94s-7.2-3.75-7.2-3.75a40.69,40.69,0,0,1,4,4.68c3.74.8,6.62,1.95,4.89,3.89C340.34,431.35,340.26,431.49,340.26,431.64Z" transform="translate(-238.24 -324.5)"/><path class="cls-8" d="M341.63,435.16c1.73.87,1.73,2.88,1.15,6.34s-6.26,7.42-3.09,10.3,10.58-7.71,8.28-14.33-3.75-5.19-3.75-5.19Z" transform="translate(-238.24 -324.5)"/><path class="cls-9" d="M342.78,436.32c.58,1.08.44,2.8,0,5.18-.57,3.38-6.26,7.42-3.09,10.3a.07.07,0,0,0,.07.07,14.88,14.88,0,0,0,.79-1.51c6.84-14.62,3.1-15.48,3.1-15.48Z" transform="translate(-238.24 -324.5)"/><path class="cls-10" d="M268.34,423.43c-1.73-6.05-.29-10.95.28-16.92s2.6-24.63.29-27.51-.29,5.76-1.15,10.37-6.05,24-6.05,29.45S268.34,423.43,268.34,423.43Z" transform="translate(-238.24 -324.5)"/><path class="cls-11" d="M268.34,423.43a21.6,21.6,0,0,1-.8-4.54,18.15,18.15,0,0,1-2.08-11.81c.93-6.4,2-11.23,1.8-15.62-1.52,6.7-5.55,22.54-5.55,27.36C261.71,424.29,268.34,423.43,268.34,423.43Z" transform="translate(-238.24 -324.5)"/><path class="cls-12" d="M270.06,424c-4.6-4.6-1.15-18.93-.28-25s-.29-19.15-.29-19.15-.87-4.54,2.59-.58,14.9,22.61,17.78,24.34,15.48,16.63,18.22,19.8,14.4,16.92,11.81,17.21-21.17,5.68-31.75.86-14.4-21.82-14.4-29.88S270.06,424,270.06,424Z" transform="translate(-238.24 -324.5)"/><path class="cls-13" d="M267.62,380.66c.57,11-2.67,20-4.25,30.6,0,2.66-1.66,5.4-.36,7.7.43-2,.36-4.39.79-6.4.65-1,.22-2.38,1-3.1a42.86,42.86,0,0,0,.86,9.72l.36-.72c.58,1.8,2.45,3.89,2.45,6.26,2-10.29,3.67-21.24,8.21-30.88.72-.72.93-1.66,1.94-1.8-5.47,9.57-5.9,21.24-5.54,32.68.36,1.52,1.22,3.24,1.15,4.47-3.31-4.68-1.37-11.59-1.66-17a28.43,28.43,0,0,0,.51-6.12,107.51,107.51,0,0,0-3.82,20.16c-.14,1-1.22.36-1.65,1a10.72,10.72,0,0,1-5.62-4.6c-.94-15,7-29,4.46-44C267.83,378.64,266.46,380.3,267.62,380.66Z" transform="translate(-238.24 -324.5)"/><path class="cls-14" d="M279.5,392.83c-1.16,4.17-6.63,28.58-.87,36.57s5.47,5.48,10.37,11.52c-6.34-3.45-15-7.2-14.69-23S279.5,392.83,279.5,392.83Z" transform="translate(-238.24 -324.5)"/><path class="cls-15" d="M270.06,424a5.43,5.43,0,0,1-1.29-2l-.15-.87s1.73-13.46,3.75-17.78c1.73-3.89,1-12.67.86-22.54,2.88,4,8.21,12.17,12.17,17.57-.72,4.83-2.88,9.36-3.31,15.55-.58,8.07,5.47,16.92,14,18.36,6.12,1,12.6-2.3,16.56-3.45a75.82,75.82,0,0,1,6.62,9.07,12.26,12.26,0,0,0-1.73-.43s-19.15,2-23.47,1.73-10.58-4.9-14-9.22c-4.32-4.25-4.61-21.74-.57-32.11,2.59-10.23-.29-3.67-2.88-.58-1.16,1.44-2.67,7.85-4,14.55-1.08,3.88-2.6,12.16-2.6,12.16Zm50.12,15.63c.14.57.07.93-.29,1-1.8.14-11.09,2.8-20.09,2.88,4.25-2.67,15.12-3,19.8-3.75C319.82,439.7,320,439.7,320.18,439.63Z" transform="translate(-238.24 -324.5)"/><path class="cls-16" d="M287,400.75c-.28,8.06-5.76,18.93,0,23.83s14,6,8.28,5.4-13.46-.29-12.88-13.46,3.16-17.21,3.16-17.21Z" transform="translate(-238.24 -324.5)"/><path class="cls-11" d="M300.45,442.65l10.8,1.15s.57,2.24-9.07,1.08c-9.8-1.08-10.37-1.08-10.37-1.08S300.16,442.65,300.45,442.65Z" transform="translate(-238.24 -324.5)"/><path class="cls-17" d="M330.18,346.89l-6,1.15c-7.78.29-18.29,0-24.91-.28s-20.67-.87-20.67,4.89-4.32,9.72-7.7,9.43-14.69-.57-14.11,2.88,6.62,3.75,10.36,2.88,16.64-3.74,20.38-8.06,4.25.86,7.7.58,11.24-.58,12.82-2.24c1.73-1.72-1.87,6.84,6.91,12.6s26.14,7.13,30.67,9.15,14.33,12.38,16.64,7.2,0-8.93,2.88-10.37,8.35-16.06,5.76-16.06S360,365.83,354,363s-9.8-10.59-12.1-14S330.18,346.89,330.18,346.89Z" transform="translate(-238.24 -324.5)"/><path class="cls-18" d="M320.18,352.36c-4.61.58-3.75,18.08,6.26,21s17.5,3.67,22.39,7.41,5.47,2.88,3.75-2.88-2.6-7.7,0-5.4,2-2.59-.58-6.05-8.35-8.28-8.35-8.28-.58-5.18-1.73-6.91a9.8,9.8,0,0,0-9.43-4C327.88,348,320.18,352.36,320.18,352.36Z" transform="translate(-238.24 -324.5)"/><path class="cls-19" d="M361.58,388.08a3,3,0,0,0,.72-1c2.3-5.19,0-8.93,2.88-10.37a5.52,5.52,0,0,0,1.51-1.44,19.81,19.81,0,0,1-6.12-4.82c-1.73-2.45-1-4.9.29-6.84A11.56,11.56,0,0,1,354,363a18.9,18.9,0,0,1-2.16-1.23c-1.16.51-1.95,1.08-1.88,1.8.29,3.17,7.49,10.37,10.59,14C362.37,379.65,362.44,384.33,361.58,388.08Z" transform="translate(-238.24 -324.5)"/><path class="cls-10" d="M350,377c-.5,1.94-6-4.54-8.56-5.69s-6.05-3.46-1.44-2.88,8.56,4.9,6.55.58-2.88-6.05-.87-4.61C348.18,365.32,350.49,375.12,350,377Z" transform="translate(-238.24 -324.5)"/><path class="cls-10" d="M308.94,356.68a13.25,13.25,0,0,1,6.34-4.6c2-.58-1.44-.29-4.32.57s-5,3.17-3.67,3.17S308.94,356.68,308.94,356.68Z" transform="translate(-238.24 -324.5)"/><path class="cls-10" d="M274.6,362.66c-.58.79,7.92-4.25,8.64-9.14s-.29-3.17-2.3.57A51.38,51.38,0,0,1,274.6,362.66Z" transform="translate(-238.24 -324.5)"/><path class="cls-20" d="M291.23,356.11c-3.67,0-4.53,3.09-6.55,5.11s-10.94,4-14.33,5.18-8.93,7.49-4,8.64,11.74-5.76,11.74-5.76-6.84,10.88-4.9,13.47,4.9,5.18,6.91-2.31a47.35,47.35,0,0,1,5.76-12.88Z" transform="translate(-238.24 -324.5)"/><path class="cls-20" d="M345.66,396.21c0,.29-10.87,10.87-18.36,8.86s-19.8-7.49-25.12-5.19c-5.48,2.31-5.19,2.31-1.16,3.46s5.19,1.44,5.19,1.44-5.19,3.46-8.64,2.3-11.45.58-6.91,4.54,6.62,2.59,9.21,1.15S307,409.68,311,410s4.32,2.52,4.32,2.52,6.34-3.67,12.31-4,16.06-4.32,17.79-7.48S345.66,395.92,345.66,396.21Z" transform="translate(-238.24 -324.5)"/><path class="cls-8" d="M348.54,396.5c.58,0-3.16,10-16.63,11.16s-18.65,7.13-20.66,7.7-10.51,2-6.77,4.61,12.82-2.3,19.15-3.17,19.73-1.72,22.9-8S348,396.5,348.54,396.5Z" transform="translate(-238.24 -324.5)"/><path class="cls-10" d="M310.67,415.36c.58-1.15,11.81-4.6,16.92-5.68s11.81-1.44,14.91-4.61l4.89-4.9A39,39,0,0,1,330.47,408c-10.29,2-11.16,1.44-14.9,4S310.1,416.52,310.67,415.36Z" transform="translate(-238.24 -324.5)"/><path class="cls-21" d="M265,374.47a4.4,4.4,0,0,0,1.3.57c1.8.44,3.89-.28,5.83-1.29,4.11-5.26,7.06-5.62,7.06-5.62L274.6,377s-4,5.47.58,4.32,4-7.13,6.33-10.87.87-5.76-3.45-4.9-4,1.73-5.4,5.47S268.41,374.76,265,374.47Z" transform="translate(-238.24 -324.5)"/><path class="cls-21" d="M302,400c-5.33,2.23-5,2.23-1,3.38.58.14,1.08.29,1.59.43,2.16,0,4.68.15,7.2.15,4.32,0,4.61-.29.86-1.73s-4.17-.29-6.77-.29c-2.08,0-2.3-.72-1.87-1.94Zm-12.74,9.64a3.78,3.78,0,0,0,1.37,2c4.6,4,6.62,2.59,9.21,1.15.43-.21.87-.43,1.37-.65a3.09,3.09,0,0,1,.36-.5c1.44-1.66,13.1-3.38,7.06-3.67s-9.08,3.09-12,3.38A10.73,10.73,0,0,1,289.29,409.6Z" transform="translate(-238.24 -324.5)"/><path class="cls-22" d="M307.29,360.93c0,2.88,2.52,12.39,17.42,15.48s19.8,5.76,22.68,7.2,12.89,4.32,8.93,5.19S346.53,392,343.07,393s4.61,10-9.72,10.88-32-6.63-37.22-17.72-8-13.46-3.46-19.22,2.88-6.05,7.49-6.34A28,28,0,0,1,307.29,360.93Z" transform="translate(-238.24 -324.5)"/><path class="cls-5" d="M301,391.68c-.28-.29-11.16-12.68-5.76-13.83s19.73,6.63,27.8,10.95,13.46,12.24,6.84,13.1-17.5-1.44-23.69-4.9S301.31,392,301,391.68Z" transform="translate(-238.24 -324.5)"/><path class="cls-23" d="M302.46,359.49c-2.3,5.76-3.45,11.52,7.06,18.07,10.66,6.63,11.81,6.63,11.81,6.63s-6.34-6.34-9.51-12.6,3.75,4.32,10.08,8.28,9.15,2.88,13.18,4-2-2.88,2.59-.58,11.74,5.76,14.33,6.05a17.2,17.2,0,0,0,4.32,0s-14.9,5.11-16.06,6.55,1.66,4.25,1.66,4.25-6.26,4.61-10.87,3.75,2.88-1.44,4.61-2-.29-1.73-3.46-1.73-6.91-2.3-6.91-2.3,13.82-.87,7.49-1.66S317,390.52,309.23,383s-10.8-13.47-10.51-9.15,4.9,10.3.29,6-5.19-9.15-6.91-7.42-.29,5.69-.29,5.69-5.4-3.67-3.39-8.57a22.41,22.41,0,0,1,6.56-8.35Z" transform="translate(-238.24 -324.5)"/><path class="cls-24" d="M349.41,391.39c-2.31.86-5.47,1.44-5.19,4s-2,6.84-4.24,7.41.57-4.6-2.6-4.6,2.6-2.81-.57-4.25-11.23-4,.86-3.1S349.41,391.39,349.41,391.39Z" transform="translate(-238.24 -324.5)"/><path class="cls-24" d="M299.87,360.64c-.57,3.46-1.44,10.95,7.13,18.65s-4,.87-8-3.38-10.3-7.78-8.07-12.67S299.87,360.64,299.87,360.64Z" transform="translate(-238.24 -324.5)"/><path class="cls-18" d="M257.68,363.24c4.32,0,16.06,3.16,22.1-1.16s13.47-12.31,13.47-9.14-.29,4.61,3.17,3.46,5.47-3.75,5.18-1.73,2,3.74,6.48,2.3c4.61-1.44,8.93-6.05,10.66-6.33s-8.36,0-11.74.57-12.89.87-16.63-1.44-7.13-1.44-9.72,2.88-4.61,10.59-9.72,9.72-6.63-1.73-9.79-1.44S257.68,363.24,257.68,363.24Z" transform="translate(-238.24 -324.5)"/><path class="cls-25" d="M373.24,362.37l-.86,1.15-3.75,10.37s3.75-2,4.61-5.18A13.6,13.6,0,0,0,373.24,362.37Z" transform="translate(-238.24 -324.5)"/><path class="cls-13" d="M256.89,331.84l5.47,5.26c1.87.07,3.24,2.38,5,3.38l.57,1.44c-3.81-1.29-6-5.18-9.14-7.41.58,2.16,3.24,3,4.25,5.25-1.15.29.36,2.6-1.3,1.52-.36-.44-.57-.44-1.08-.22.15.22.43.29.36.5a5.88,5.88,0,0,1-3.24-1.8v-.64c.94-.29.79,1.29,1.59.79l-.8-1.44c.87-.15.15-.72.8-1v-.94a64.88,64.88,0,0,1-6.77-9.72l.21-.5C254.22,328,255.23,330.26,256.89,331.84Z" transform="translate(-238.24 -324.5)"/><path class="cls-13" d="M245.51,335c.58-.36-.14-1-.14-1.51a27.71,27.71,0,0,1,5.76,5.47c-1.37-.36-2.59-1.87-3.82-3,.36,1.94,2.23,3.6,3,5.54a.54.54,0,0,1-.51.22c-1.08-1.15-1.29-3.31-2.81-3.67,1.44,2.81,3.75,5.18,4.47,8.13h-.58a25.71,25.71,0,0,0-4.1-6.76c1.29,3.16,3.67,5.9,4.68,9.21-2.88-4.75-5.76-10.08-10.3-13.82.58-.43,1.08.65,1.51.36-.07-.36-.57-.79,0-1.08.58.14,1,1.15,1.52.86l-1-1.29C243.93,333.14,244.72,334.29,245.51,335Z" transform="translate(-238.24 -324.5)"/><path class="cls-13" d="M240.26,335.3c4.32,4.39,8.13,9.29,9.07,15.19.57.15.86,1.23,1.58.87.51.57,1.37.64,1.51,1.65l.72-1.08c.8.29.29,2,1.44,1.66.51.93-.14,2-.14,2.66l2.3-2.45c-1.15,3-3.38,4.68-5.61,6.7a6.64,6.64,0,0,1,1.15-2.09l-.5-3c-.29,1-.22,2.09-.51,3.1-.57-.15-.65-1-1.65-.65a30.64,30.64,0,0,0-9.8-22.61Z" transform="translate(-238.24 -324.5)"/><path class="cls-13" d="M272.08,342.36c-.22,0-.36,0-.5.21,3.45,3.67,1.51,10.23,5.25,13.83-.36.36-.93.14-1.29-.15-2.45-2.81-2.09-6.91-3.46-9.86-1.94.65-2.95,2.73-4.75,3.81-.36-1.58,2.23-2.08,2.3-3.52-1.94.57-2.95,2.73-4.68,2.95l2.95-2.95c-2.23.07-3.24,3.09-5.76,3.16,1.37-2.59,5.26-3.31,6.48-6.26-4,1-5.9,5.54-9.57,7.2.36-1.08,1.8-1.15,2.52-2.23C264.45,345.38,267.69,341.71,272.08,342.36Z" transform="translate(-238.24 -324.5)"/><path class="cls-13" d="M342.42,347.83c1.73,2.52,2.31,5.47,3.24,8.28.36-.15.08-.58.15-.87,1,.29.72,2.24,2.16,2a78.81,78.81,0,0,1,7.56,15.19c-.58.94-1-.57-1.44-.5l-5.76-9.79c1.29,5,4.25,9.14,6.26,13.89-3.81-6.19-8-12.6-10.73-19.44,1.73-.72-.5-1.58-.5-2.66.29-3.1-2.66-4.83-5-6-5.18-2.59-11.45.22-15.77,3.67.08-1,1.8-1.51,2.31-2.59-5.91-1.8-12-.86-18.15-.86a21,21,0,0,0-6.69,4c-1.08-.22-.58-1.51-.79-2.16a21.23,21.23,0,0,1,5.25-3.1l.15.94,1.51-.43C319,350.92,330.47,341.13,342.42,347.83Z" transform="translate(-238.24 -324.5)"/><path class="cls-13" d="M298.07,346.53,298,348c-2.66-.21-4.82,1.95-7.78,1.37l-.64-1.51a21.71,21.71,0,0,0-10.59,4.1,9.8,9.8,0,0,1-4.61,10.44c-3.45,1.08-6.62-1.08-9.57-1.65,3.31-.44,5.54,2.3,9.07.86,1.94-.79,3.38-2.74,4.32-4.46.65-2.31-.86-4.4.58-6.12,4.89-4,11.8-3.68,17.71-4.76C296.92,346.53,297.64,346.24,298.07,346.53Z" transform="translate(-238.24 -324.5)"/><path class="cls-13" d="M299.73,347.83a7.16,7.16,0,0,1-3.24,2,8,8,0,0,1-4.11.36C294.47,350.06,297.35,348.76,299.73,347.83Z" transform="translate(-238.24 -324.5)"/><path class="cls-13" d="M339.69,350.35c2.73,2.73,3.09,7.13,2.37,10.73-.43,3.24-3,4.46-5,6.69-4.18,1.44-9.72,2-13-1.65a8.85,8.85,0,0,1-3.53-7.06c.29-4.39,2.88-7.2,6.48-9.58C331.12,348.12,336.09,347.76,339.69,350.35Z" transform="translate(-238.24 -324.5)"/><path class="cls-26" d="M340.55,352.8c1.87,3.81.94,7.77-1.15,11.23a9.44,9.44,0,0,1-8.71,3c-4.11-.58-7.35-4.61-8.28-8.21-.79.72-.43,2.52-.29,3.6-1.37-2.59-.5-6.33,1.15-8.78a13.16,13.16,0,0,1,12.31-4.25C337.31,349.84,339.62,350.78,340.55,352.8Z" transform="translate(-238.24 -324.5)"/><path class="cls-13" d="M315.21,352.8c-2.81,1.29-5.4,4.39-5.83,7.27-.44-3.1,2.37-6,4.82-7.27.43.07.65-.22,1-.36Z" transform="translate(-238.24 -324.5)"/><path class="cls-13" d="M293.54,353.16c-.8,1.44.07,2.8-.36,4.32h1.15l-.51.43c.22.5,1.08.36,1,1.15.65-.58.36-1.87,1.51-1.94-.07.21.22.36.29.43.36-1.3,2.23-1.87,2.67-2.88,0,1.44-1.23,2.52-1.52,3.89-1.22,7.27,1.44,14.76,5.62,20.3-3.46-3-5.11-7.42-6.26-11.59-.87,1.29,1.08,2.81-.51,3.67a19.71,19.71,0,0,0,7,13c-.08.29.07.58-.22.72a27.3,27.3,0,0,1-9.72-19.94l-1.51,3.09c-.43-.07-1-.57-1.08.22-.22,2.16-.29,4.75-1.23,6.91h-.5v-7.27c-3.67,6.12,2.09,10.73,4.61,15.48,4.17,4.53,8.06,9.72,11.88,14.11,6.48,1.66,12.74,4.82,19.08,6.62,5.54-.36,12.81,1.37,17.13-4.68.36-.07.44.15.65.36-.29.15-.14.44-.21.72-4.9,5-12.1,4.68-18.72,4.11a27.85,27.85,0,0,0-11.6-3.31,1.61,1.61,0,0,1,.72-.58c-1-.14-2.44-1.37-3.31-.22.22.51.94.22,1.3.22-3.82.58-8.28-1.8-11.74.94.15.93-.36.79-.36,1.44.94.64,2.23.64,3.31,1.29-1.51-.14-3.52-.14-4.68-1.65l-.93-1.8-.51.14a60.46,60.46,0,0,1-4.82-4.46c-.36-.29-.72.5-.94.07,1-.15,2.16-1.59,3.32-.58-1-1.08-.44-2.16-1.37-3.17l.5-.36c-1-2.16-2.95-4.46-3.6-7.05.36,0,.72-.58.29-.79l-.5-.58c.21-.07.36-.36.72-.29,1.58,2.59,3.74,5.47,6.55,6.27-1.8-1.3-1.95-3.32-2.95-5.12l1.51,1.88.79-.87a50.35,50.35,0,0,1-9.07-14.47,18.43,18.43,0,0,0,.36-3.17c-.65,1-1.8,1.66-2.38,2.81a33.12,33.12,0,0,0-2.95,6.77l1.66,1.65c.43-.79-.8-1.72-.15-2.16a19.26,19.26,0,0,0,5,5.26c-1.87.22-3.17-2.23-4.46-3.46v.8l3.6,4.82c-.51.5-1.08-.29-1.37-.72.07,1.37,2.09,2.3,2.23,3.53-.36.43-.72-.15-1-.22-.43.65,1.51,1.44.15,1.87l1,1.3c-.5.79-1,0-1.29-.36,0,.79.79,1.66.93,2.66-.21-.07-.28.22-.5.36,3,2,.22,3.6,2.52,6.12-2.23-2.37-3.82-6.26-6.48-8.92,2.09,5.18,6,9.5,7.92,14.54-3.38-5.18-6.48-10.73-10-16.06l-2.52-2.08c.29-.51,1.08-.36,1.23-1.08-.72.21-2.16.36-3.17.57-1.73.22-3.46.43-4.32-1.51-1.95-5.69,4.17-8.93,5-13.82l-.29-.36c-1.51,1.94-3.24,4.6-5.62,5.4-.86-1.59-1.58,1.58-2.95,1.08-.72,1.36-1.73-.22-2.45-.22-.65-1.87-4.25-2.74-2.66-5.33,2.52-1.08,4-3.24,5.9-5.25.22.07.58-.15.65.21l-.65.65.36.29c-2.45.93-2.88,4.68-5.61,4.68-.58.79.14,1.58.5,2.23a5.55,5.55,0,0,0,3.6,1.87c.86-.79,1.44-2.37,2.59-2.45,1.3.51,1.87-1.87,3.17-1.65,1.3-1.51,3.17-2.38,4.68-3.6.36,6-7.06,9.72-5.47,16.13.43,1.08,1.58,1.22,2.81,1.08-.87-.87-2.52-2.6-1.8-4.47.5.29.43,1.73.93,2.52.79.51.94,1.51,2,1.37.57.79,1.94-.14,2.95-.22.43-.5-.86-1.15,0-1.65,1.44,1.58,2.45,3.53,4,5.11-.5-2.16-3.17-3.82-3.53-6.26-1.22-1.16-.07-2.45,0-3.89.94-3.75,3-6.91,4.83-10.3-.94.29-.22-1.08-1.3-.79-.43-1.3,2.23-1.51,1.94-2.81-.07-.57.44-1.44-.21-1.65C288.35,359.42,290.73,355.89,293.54,353.16Z" transform="translate(-238.24 -324.5)"/><path class="cls-13" d="M314.85,353.8a19.59,19.59,0,0,0-3.6,4.76C311.18,356.54,312.9,354.67,314.85,353.8Z" transform="translate(-238.24 -324.5)"/><path class="cls-13" d="M310.53,354.31c-.51.93-2,1.73-1.44,2.95-1.95.79-1,3.6-1.44,5.11,3.31,9.29,14,12.24,22.32,15,8.85,1.22,16.7,4.75,24.26,8.93l2.81.14c-2.3,1.08-4.9-.5-6.91-1.15,1.44,1.15,3.45,1.73,5.11,2.66-3.67-.36-6.48-2.88-9.72-4.32-8.28-3.53-17.5-3.89-25.56-7.56,8.21,2.45,17.64,4.11,25.56,6.7-6.55-3.89-14.18-3.6-21.1-6.55a31.88,31.88,0,0,1-15.84-9.87,9.87,9.87,0,0,1-1.29-7.92c-.87,1.08-2.81.65-4.25,1a33.51,33.51,0,0,0,.58,7.2c-1.37-1.94-1.16-4.61-1.37-6.91-1-.07-.15,1.08-.65,1.51a33.42,33.42,0,0,0,.94,6.91c-.51-.07-.87-.93-.94-1.51-.22-3-1.22-5.4.5-7.78C305.7,359.28,308.51,356.25,310.53,354.31Z" transform="translate(-238.24 -324.5)"/><path class="cls-13" d="M352.43,362.52c.29-1.16-1.15-2.09-1-3.46,1.16,1.3,1.66,3.31,2.81,4.82.29-1.22-.57-2.44-.79-3.6,1.08,0,.58,1.52,1.58,1.59.72,1.37.72,3.09,1.52,4.46-.36.79-.87-.07-1.3-.21-.72.72.29,1.51.14,2.37-2.3-3.53-4.53-7.49-6.76-11.23l.36-.5Z" transform="translate(-238.24 -324.5)"/><path class="cls-13" d="M374,360.36c-5.33-1.59-11.09,2.44-16.77,2.95C362.51,361.87,368.2,357.91,374,360.36Z" transform="translate(-238.24 -324.5)"/><path class="cls-13" d="M300.59,359.71a24,24,0,0,0,.79,9.43c-1.08-.22-.5-1.73-1.15-2.3a18.24,18.24,0,0,1-.14-7.13Z" transform="translate(-238.24 -324.5)"/><path class="cls-13" d="M258.54,361.22c-.79.43-2.23,1.94-2.08,3.46a1.26,1.26,0,0,0,.64,1.44c.44-.15,1.23-.15.94-.94a4.71,4.71,0,0,0,4.1.65c-.86-.36-2.59.21-2.59-1.15,3.46,1.15,6.91-.8,10.23-.22-.51.86-2.24.43-2.31,1.51-3.81.79-8.42,4.47-11.52,0a4.53,4.53,0,0,1,.79-4c-.72-.72-2.8-.72-3-1.65C255.52,360.28,257,361.94,258.54,361.22Z" transform="translate(-238.24 -324.5)"/><path class="cls-13" d="M299.15,360.72c.36,3.74.29,7.27,1.87,10.36-2.44-2.52-1.94-6.91-2.23-10.36Z" transform="translate(-238.24 -324.5)"/><path class="cls-13" d="M372.52,361.22a29.68,29.68,0,0,1-5.26,14.33c2-.58,3.68-2.81,4.61-4.75,1.51-3,3.1-5.91,2-9.22h.57c1.3,4.39-1.65,8.42-3.6,12.17l-4.46,3.74c.65.43-.29,1,0,1.66.36,3-1.22,6.33-3.38,8.85-2,.65-4.18,2.52-6.34.94.72-.94,2.16.58,3.17-.36-.79-1.15,2-1.66,2.81-2.81.93-.72.86-1.94,1.29-2.81a5.63,5.63,0,0,0-2,2.81l-.94-1c-.5.51-.5,1.88-1.51,1.66.79-3.46,3.81-5.76,6-8.21-2.16.65-3.67,3.75-5.47,4.75.36-2.52,2.81-4.24,5-5.61-1-1.44-.79-3.24-.79-5.11a6.76,6.76,0,0,0-.58,5.25c-.86-.14-.79-1.58-1.73-1.8,0-.57-.28-1.8.29-2.45.65.22.07,1.3.51,1.8a40.15,40.15,0,0,1,1.15-4c1.73.58,1.29-1.87,2.3-2.59-.57,2.52-1.87,5.62-1.15,8.86,1.37-.72,1.51-2.67,2.81-3.75,3-3.6,2.23-7.12,3.45-11.44-.07-.51-.57-1-.36-1.44C371.8,360.5,371.73,361.72,372.52,361.22Z" transform="translate(-238.24 -324.5)"/><path class="cls-27" d="M324.14,364.39c-.72-.36-.8-1.3-.87-2Z" transform="translate(-238.24 -324.5)"/><rect class="cls-28" x="56.45" y="40.46" width="0.14" height="2.02"/><path class="cls-27" d="M330.83,368c-2.09-.22-4.17-.94-5.25-2.67C327.09,366.91,329.18,366.91,330.83,368Z" transform="translate(-238.24 -324.5)"/><rect class="cls-28" x="57.74" y="41.18" width="0.14" height="3.6"/><path class="cls-29" d="M261.35,367.2c-1.15-.15-2.09.21-3-.36Z" transform="translate(-238.24 -324.5)"/><path class="cls-13" d="M327.38,392.68c-7.56-.5-13.32-6.84-19.16-11.37-.93-1.73-3-2.31-3.31-4.11C311.25,383.61,318.74,390.74,327.38,392.68Z" transform="translate(-238.24 -324.5)"/><path class="cls-13" d="M321.62,387.57c.72.15,1.87-.14,2.16.43-3.82.22-7.13-3-9.58-5.68C316.72,384.26,318.81,386.35,321.62,387.57Z" transform="translate(-238.24 -324.5)"/><path class="cls-13" d="M323.92,386.64c-2.3.5-4.82-1.52-6.12-3.32C319.67,384.4,321.69,386.49,323.92,386.64Z" transform="translate(-238.24 -324.5)"/><path class="cls-13" d="M324.14,389.73c-4-.5-7.49-3.38-10.88-5.61l-.36-.65A46.71,46.71,0,0,0,324.14,389.73Z" transform="translate(-238.24 -324.5)"/><path class="cls-13" d="M339.26,386.71c.28-1.23,1.29-.22,1.94-.29l4.82,2.66.36-.36c-.36-.36-1.15-.57-1.08-1.15.87-.29,1.44.72,2.16,1.15l.36-.72c1.3.72,2.67,1.88,4,2,1.44.14,2.88-1.51,4-.94a39.28,39.28,0,0,1-11.88,4.11c-.21.36-.79.36-.86.79.5.36,1.37-.58,1.73.22-2.88,1.8-6.41,2.23-9.58,2.52-.57-.36-1.73-.22-1.87-1.08a9.62,9.62,0,0,0,7.13-1.3c-3.17-2-7.92,0-10.87-3.17a23.24,23.24,0,0,1,3.16.87,15.1,15.1,0,0,0,3.1-.15c-.43-.79-1.51-.21-1.66-1.15,1.16-.36,2.45,0,3.82-.36-1.3-1-3.24-.94-4.32-1.3.86-.79,1.94,0,3,0l4.68,1.3c-2.52-2.45-6.26-3.17-9.5-4,.72-.72,2.38-.14,3.46.22l5.61,2.3c-1.37-1.37-3.89-2.74-5.61-4C336.52,384.48,338,386.2,339.26,386.71Z" transform="translate(-238.24 -324.5)"/><polygon class="cls-29" points="41.62 60.91 42.05 60.48 43.06 61.92 41.62 60.91"/><path class="cls-7" d="M341.06,388.94l2.66,1.44Z" transform="translate(-238.24 -324.5)"/><path class="cls-29" d="M298.79,397.08c-2.81-1.44-5.18-5.33-7.13-7.64Z" transform="translate(-238.24 -324.5)"/><path class="cls-13" d="M347.68,394.7c-2.88,3.24-7.13,4.54-10.87,6.48-.22-.07-.15-.29-.15-.5,1.66-1.16,3.68-1.59,5.4-2.81a7.41,7.41,0,0,0-4.46,1.51l-.36-.29c2.74-2.73,7.42-1.65,10.08-4.75Z" transform="translate(-238.24 -324.5)"/><path class="cls-13" d="M350.27,397.22c2.45,3.24.22,6.26-.5,9.43-.94,2.81-3.75,3.46-5.76,5.4,4.46,1.23,10.29.07,14.33,3.53a4.85,4.85,0,0,1,1.87,5.26c-1.51,2.8-2.67,6.19-5.62,8.06-2.45.07-5,.72-7.13.29,2-.87,4.68-.43,7.13-1,2.16-2.45,4.39-5.18,5.11-8.35a5.33,5.33,0,0,0-1.36-3.46c-3.17-3.6-7.71-1.44-11.81-1,1,.65,2.88.08,3.45,1.16-3.38.86-7.2-.36-10.36,0,.93.64,2.3.57,3.09,1.29-.29.65-.72.15-1.15.22-.36,1,.22,1.51.86,1.94l-2,.15c.79,1.08,3-.15,3.17,1.65-1.52.65-3.68.22-5.19.36,1.66.94,4.47,0,5.62,1.51-1.87-.57-4.68,1.16-6.55-.86-2.38.43-2.31-1.94-4.32-2.52v-.43l-3.75-1a3.91,3.91,0,0,0,.94,4.61c.5-.79-.43-1.23,0-2.16,1.22.86.57,2.81,2,3.67.15-.94-.93-1.8-1-2.81.79-.29,1.87-.21,2.16.65-.22.43-.36,1.3.14,1.66a4.85,4.85,0,0,1,2.45,3.31c-.51.5-1.44-.29-1.95-.22-3.09,3.89-8.06,2.59-11.88,5-.5.72-1.8,1.8-.79,2.81a3.42,3.42,0,0,0,3.46.86c1.22-1.44,3-3.09,5-3.38,1.37.93,2.73-.22,4.32.36-.07.43-.65.72-1.15.79.36.5,1.15.5,1.29,1.08-1.44.07-2.88-1.51-4.53-.72-1.95.86-3.17,2.23-5,3.31-1.8-1.29-4.32.29-5.47-2.16.57-1.65-1.88-3.24.21-4.89,3.89-4.32,8,2.08,12.17-1.66.5-.72,1.44-1.08,1.3-2l-2.67-1.94c-.43.43.65.86.22,1.3a3.39,3.39,0,0,1-1.66.36c-.29-.22-.43-.65-.79-.72-.29.21-.58.64-.22.86-1.36.5-2.37-1.37-3.45-1.15-1.8-3-4.75-5.83-7.13-8.43-1.37.15-1.15,1.3-1.94,2.16-1.23.65-2.38,1.66-3.6,2.45.07.22.5.22.14.51-2.38,1.8-4.68.64-7,1-.36-.28,0-.79-.51-1-.14.36-.43.14-.72.21a13.77,13.77,0,0,1-1.73-5c1.59-1.29,3.68-1,5.55-1.51-.58-1.65,1.51-.93,1.58-2.3,1.66-.43,2-2.16,3.17-2l.65-1.15c-5.33-1.15-10.8,1-15.27,4-2.23.07-3.74-2.3-5.76-2.09-1.22-.72-1.65-2-2.16-3.17-.72.36,0,.94,0,1.3-.79-.22-1.15-1.51-1-2.59-.44-.79.79-1,.86-1.66-.5-.36-1.08,0-1.44.36l-.58.79a1,1,0,0,1-.14-1.44c5-1.65,10,1.08,15.34.08a1.56,1.56,0,0,1,.79-2.24c1.44.8,1.08-1.51,1.8-1.51.93.36.36,1.37,1.08,1.51l.21-1.15c1.16,0,.36,1.95,1.8,1.44a7.67,7.67,0,0,1-6.69,3.17c-3.6-.86-7.27-.5-10.8-1.22l1.08.57c-1-.21-1.37.79-1.66,1.66-.5,1,.87,1.37.58,2.09a1.59,1.59,0,0,0,1.44.86c.72-.79,1.44-1.58,2.66-1.3,1,.58,1,.94,1.59,2,.72.36,2.16-1.73,2.37,0a6.76,6.76,0,0,0-2.23,1.65c5.33-2.37,11.81-5.4,17.93-3,.86,1.08-.15,2.45-.51,3.38-3,1.59-6.4,3.6-10.15,3.24-.57.44-1.94.44-1.29,1.44a2.39,2.39,0,0,1,1.8.36c.79,0,1.29-.72,2.08-.5.15.29.15.65.51.86.72-.21,1.22-.93,1.94-1.15.36.43-.21,1.37.87,1,.64-.65.93-1.22,1.8-1.51,0,.21-.15.57.14.72l1.44-1.23c.43,1-1.3,1.37-.94,2.16,3.6-2.23,7-5,11.24-5.76v.65c-1.52-.29-2.88.87-4.11,1.59,3.75-1.08,7,3.52,10.66,1.22a2.08,2.08,0,0,1-.65-1.44A3.31,3.31,0,0,0,332,415c-2.3-.28-4.89.51-7.27.36,5.47-1,11.88-1.65,17.71-3.31a10.74,10.74,0,0,0,3.24-2.09c-1.94.15-4,1.59-6,2-.07-.51.36-.79.72-1l-2.31-.14c.15-1.66,2.6-1.23,3.6-2.31-.21-.72-1.29.15-1.29-.86.65-.65,1.15-.51,2-.29a9.71,9.71,0,0,0,4.9-2.52c-1.51-.29-3.1.29-4.46.5.28-.93,1.51-.79,2.16-1.44,1.08-2.08,3.38-3.31,3.45-5.83l1.15-.14-.64-2.38C349.91,395.42,349.84,396.64,350.27,397.22Z" transform="translate(-238.24 -324.5)"/><path class="cls-13" d="M278.34,402.19c-2.44,7.34-2.16,14.69-2.16,23.11a6.93,6.93,0,0,0,.65,1.94c.79-6.12-.29-12.67,1.51-18.79h.44c-.29,2.95-1.16,6.48-1.3,9.94l.36.57.79-5.76c.29-.07.36.22.51.36a77.35,77.35,0,0,0-.58,13l.94-11c.28-.22.43-.14.64.14-.07,3.17-.79,6.63-.28,9.72.57-3,.72-5.83,1.15-8.78h.43c-.14,3.74-.94,7.27-.65,10.58.72-2.23.43-4.89,1.37-6.62.07,2.88-1,7.2.29,9.72-.72-.79-.94-2.16-2.31-2.16.15,1.44-1.8,0-1.51,1.51-1.37.65-.5-1.94-1.94-1.37-2.16-6.76-.72-12.6-.72-19.72C276.83,406.44,276.9,403.7,278.34,402.19Z" transform="translate(-238.24 -324.5)"/><polygon class="cls-29" points="107.06 90.22 110.59 89.42 112.68 89.42 107.06 90.22"/><polygon class="cls-30" points="93.96 90.36 98.57 89.57 98.86 89.57 93.96 90.36"/><path class="cls-13" d="M317.44,432.5c-1.37-2.88-4.32-5.69-6.19-7.92l.14-.5C313.55,426.6,316.65,429.19,317.44,432.5Z" transform="translate(-238.24 -324.5)"/><path class="cls-13" d="M345.66,430.34c-1.65,5.33-2.88,11.09-5.25,16-.07-1.22,1.22-2.52.79-4a22.44,22.44,0,0,1-1.8,3.53c.22-2.88,2.81-5.4,2.66-8.42l-1.29-1c-1.95.58-3.46,2.09-5.19,3.1,1,1.15,1.52,2.52,3,3.16-.08.44-.65.36-1.08.36-.08-.36-.51-.57-.65-.86,1.15,1.73-1.15,2.59.07,4.25-.79,1-.86,2.37-1.3,3.17a10,10,0,0,0,1.88,2,3.53,3.53,0,0,1,1.94-2.95c.14.79-1.51,1.58-1,2.95.87,1.15,2.23,1.15,3.53,1.3a3.76,3.76,0,0,0,2.23-1c-.93-.72.94-1.22,1.08-1.94a4.5,4.5,0,0,0-2.52-.36c2.59-4,3.82-8.93,5.26-13,.36-1.72-1.15-3.16-1.59-4.24a4.17,4.17,0,0,1,2.09,2.44c.07,1-.36,2.6.94,2.67-2.09,1.87-1.23,4.61-1.3,7a88.35,88.35,0,0,0,14,14.33c.94.87.87,2.23,2,3.31-1.08-.5-2.31-.57-3.53-1.15.29.58-.43.22-.65.36-1.08-1.22-2.09-2.88-3.45-3.31,1.15,1.87,3.09,3.31,4,5.26H360l-9.21-11.24c-1,.08-1.37-1.22-2.16-1.72l.21-.58c1.51,1.51,3.6,2,5.26,3.17.86.57,1.08,1.73,2.16,1.94-2.31-3.31-5.47-6.26-8.28-9.36-1.23,3-1.37,7-5.26,8.07-1.58.5-2.81-.8-4.32-.8l.36.94c3.82,5.11,8.64,9.43,12.31,14.76-6.48-6.41-12.74-13.82-19.44-20.38-.93-2.16.22-5.11,1.88-7.05,1.51-2.52,4.1-3.82,6.55-5.11v-.65c1.65-1.51,4.1-2.88,4.68-5-.43-1.08-2.16-.5-1.73-1.8A4.06,4.06,0,0,1,345.66,430.34Z" transform="translate(-238.24 -324.5)"/><path class="cls-29" d="M325.07,430.56c-.36.43-1.22.43-1.8.57C324,430.92,324.21,429.91,325.07,430.56Z" transform="translate(-238.24 -324.5)"/><path class="cls-13" d="M314.7,432c-.21.14-.14.36-.14.5l-5.33,1.3c2.09.57,4.39,0,6.63,0v.72a23.46,23.46,0,0,0-7.92,1.8c2.66-.29,5.68-.8,8.56-1.16v.44a56.28,56.28,0,0,0-6.26,1.65c1.08.51,2.52-.07,3.82-.14.64.29,2,0,2.08,1-7.84.43-15,5-23,2.59-1.23-.94-3.39-.51-4.11-1.73,3.53-.86,6.19,1.58,9.72-1.08-.29-.22-.72,0-.79-.43l1.44-.36-.5-.51c.72-.64,2.16-.21,2.44-1.29,4.11-1,7.92-2.31,12-3.46Z" transform="translate(-238.24 -324.5)"/><path class="cls-13" d="M281.8,436.32c9.79,11.23,24.7,3.38,36.72,4.32-9.86-.8-20.45,5.68-30.46.79-3-.94-5-2.88-7.27-5.47V434.3C281.44,434.73,281.44,435.6,281.8,436.32Z" transform="translate(-238.24 -324.5)"/><path class="cls-31" d="M306.57,435.6a18,18,0,0,1-6.63,1.36C302.32,437,304.19,435.52,306.57,435.6Z" transform="translate(-238.24 -324.5)"/><path class="cls-13" d="M332.49,436.75c-1.3,5-9.51,3.81-8.93,9.57a1.25,1.25,0,0,1,.58,1c-.72.15-1.3-.79-1.37-1.44a3.83,3.83,0,0,0,0,2.23c.21.29.93.29.79.87a1.56,1.56,0,0,1-1.66-1.15c-.86.72.36,2-.14,2.52.94,1.51,2.59-.29,3.82.28-.87,1.08-2.52,1.08-3.68.87-1.44-.58-2.08-1.95-2.95-3a4.11,4.11,0,0,1,.51-3.31,11.72,11.72,0,0,1,5.61-2.95C327.45,440.35,330.26,438.69,332.49,436.75Z" transform="translate(-238.24 -324.5)"/><path class="cls-13" d="M319.31,443.44c-5.25,1.88-12.38.15-18.07,1.44l-1-.5a2.92,2.92,0,0,1,3.17-.86,111,111,0,0,1,15.55-.65Z" transform="translate(-238.24 -324.5)"/><path class="cls-32" d="M337.82,365.47a9.77,9.77,0,0,1-7.13,1.51c-4.11-.58-7.35-4.61-8.28-8.21-.79.72-.43,2.52-.29,3.6-1.37-2.59-.5-6.33,1.15-8.78a13.09,13.09,0,0,1,4.9-3.53c-4.47,4-6,17.14,5.47,16.06A31,31,0,0,0,337.82,365.47Z" transform="translate(-238.24 -324.5)"/><path class="cls-25" d="M333.5,364.68a7.46,7.46,0,1,0-7.35-7.42A7.39,7.39,0,0,0,333.5,364.68Z" transform="translate(-238.24 -324.5)"/><path class="cls-33" d="M334.36,363.24a6.3,6.3,0,1,0-6.19-6.27A6.26,6.26,0,0,0,334.36,363.24Z" transform="translate(-238.24 -324.5)"/><path class="cls-34" d="M334.07,360.64a4.86,4.86,0,1,0-4.75-4.82A4.82,4.82,0,0,0,334.07,360.64Z" transform="translate(-238.24 -324.5)"/><path class="cls-35" d="M333.42,359.78a2.7,2.7,0,1,0-2.66-2.74A2.72,2.72,0,0,0,333.42,359.78Z" transform="translate(-238.24 -324.5)"/><path class="cls-13" d="M335.58,351.93a28.88,28.88,0,0,1-5.9,12.1c-.65.14-1.3.36-1.94.43-1.44-3,.14-7,2.16-9.72,1.87-1.22,2.73-2.81,4.75-3.74Z" transform="translate(-238.24 -324.5)"/><path class="cls-29" d="M329.68,360.5c-.14-.29-.36-1-.86-.79-.36-1.44,1.94-1.51,2.52-3.31Z" transform="translate(-238.24 -324.5)"/><path class="cls-10" d="M279.35,355c-2.09,3.89-4.17,8.06-8.42,7.34-4-.65-5.83-1.29-7.85-1.44,4.75,2.95,9.65,1.87,10.94,2.31,1.73.57,6.34-4.83,6.05-6.56A8.59,8.59,0,0,0,279.35,355Z" transform="translate(-238.24 -324.5)"/><path class="cls-1" d="M245.08,333.43c10.37,12,8.64,21.53,17.21,25s14,3.67,11.45-.57-27.22-31.32-27.22-31.32Z" transform="translate(-238.24 -324.5)"/><path class="cls-1" d="M352.86,465.55c-.57-1.44-24.12-23.76-27.28-27.79s-23.69-32.69-30.32-40.47-17.2-25.13-10.29-19.44,56.45,59.33,60.69,64.23,14.91,20.3,14.91,20.3Z" transform="translate(-238.24 -324.5)"/><path class="cls-2" d="M265.46,353.52c.28,4.6,16.92,25.77,18.64,27.79s8.86,16,20.38,32,12.82,14.9,15.7,18.07,4.82,9.22,6.84,9.5,10.36,2.88,11.8,7.13,14.33,20.09,14.33,20.09h-1.73s-42.76-37.87-63.28-66.24-26.72-40.39-30.46-41.83,2.59-2.81,2.59-2.81Z" transform="translate(-238.24 -324.5)"/><path class="cls-3" d="M238.24,332.28c8.28,7.48,11.16,25.84,14,22.68s-6.34-21.53.86-18.94,10.59,6.26,8,10.87-8.86,12.6-6.27,11.81,12.89-13.25,15.77-8.93,5.11,7.2,5.11,7.2-3.38-10.37-6.84-14.11-12.38-9.14-14.33-12.89a20.29,20.29,0,0,0-4-5.47s5.19,7.78-3.17,7.78Z" transform="translate(-238.24 -324.5)"/><path class="cls-4" d="M333.06,418c1.16,2.59-3.45-1.44-3.16,2.59s4,6.05,4,6.05-6.63,3.38-10,4.24-6.05,5.19-1.15,5.48,8.57-2,10-2-1.16,2.88-5.76,6.34-9.15,7.12-4.54,8.56,8.28-4.32,14-9.43,8-12.38,10.3-10.37,14-5.68,11.8-10.29-6.62-6.91-13.24-6.34S333.06,418,333.06,418Z" transform="translate(-238.24 -324.5)"/><path class="cls-5" d="M350.27,415.36c.58.87,5.19,2.88,4.32,6.63s-4,5.69-1.44,5.4,8.57-6.84,5.47-9.72C355.46,412.92,349.7,414.5,350.27,415.36Z" transform="translate(-238.24 -324.5)"/><path class="cls-6" d="M321.54,432.07c-1.94,1.58-2.44,4,1.23,4.25,4.82.28,8.57-2,10-2s-1.16,2.88-5.76,6.34-9.15,7.12-4.54,8.56c3.82,1.23,7.06-2.59,11.38-6.91a3.7,3.7,0,0,0-3.1,1.51c-2.88,3.1-6.05,1.95-4.61-.28s16.63-14.69,19.8-15.27-4-.57-7.13-1.94-7.2-3.75-7.2-3.75,4.61,4.61,4.61,6-4.89,3.46-8.93,4.9-3.38.86-5.11-.29Z" transform="translate(-238.24 -324.5)"/><path class="cls-7" d="M327.59,435.81c2.45-.57,4.25-1.51,5.19-1.51.21,0,.36.07.36.22l2.52-2.24-8.07,3.53Zm12.67-4.17a22.51,22.51,0,0,1,5.69-3.39c3.17-.57-4-.57-7.13-1.94s-7.2-3.75-7.2-3.75a40.69,40.69,0,0,1,4,4.68c3.74.8,6.62,1.95,4.89,3.89C340.34,431.35,340.26,431.49,340.26,431.64Z" transform="translate(-238.24 -324.5)"/><path class="cls-8" d="M341.63,435.16c1.73.87,1.73,2.88,1.15,6.34s-6.26,7.42-3.09,10.3,10.58-7.71,8.28-14.33-3.75-5.19-3.75-5.19Z" transform="translate(-238.24 -324.5)"/><path class="cls-9" d="M342.78,436.32c.58,1.08.44,2.8,0,5.18-.57,3.38-6.26,7.42-3.09,10.3a.07.07,0,0,0,.07.07,14.88,14.88,0,0,0,.79-1.51c6.84-14.62,3.1-15.48,3.1-15.48Z" transform="translate(-238.24 -324.5)"/><path class="cls-10" d="M268.34,423.43c-1.73-6.05-.29-10.95.28-16.92s2.6-24.63.29-27.51-.29,5.76-1.15,10.37-6.05,24-6.05,29.45S268.34,423.43,268.34,423.43Z" transform="translate(-238.24 -324.5)"/><path class="cls-11" d="M268.34,423.43a21.6,21.6,0,0,1-.8-4.54,18.15,18.15,0,0,1-2.08-11.81c.93-6.4,2-11.23,1.8-15.62-1.52,6.7-5.55,22.54-5.55,27.36C261.71,424.29,268.34,423.43,268.34,423.43Z" transform="translate(-238.24 -324.5)"/><path class="cls-12" d="M270.06,424c-4.6-4.6-1.15-18.93-.28-25s-.29-19.15-.29-19.15-.87-4.54,2.59-.58,14.9,22.61,17.78,24.34,15.48,16.63,18.22,19.8,14.4,16.92,11.81,17.21-21.17,5.68-31.75.86-14.4-21.82-14.4-29.88S270.06,424,270.06,424Z" transform="translate(-238.24 -324.5)"/><path class="cls-13" d="M267.62,380.66c.57,11-2.67,20-4.25,30.6,0,2.66-1.66,5.4-.36,7.7.43-2,.36-4.39.79-6.4.65-1,.22-2.38,1-3.1a42.86,42.86,0,0,0,.86,9.72l.36-.72c.58,1.8,2.45,3.89,2.45,6.26,2-10.29,3.67-21.24,8.21-30.88.72-.72.93-1.66,1.94-1.8-5.47,9.57-5.9,21.24-5.54,32.68.36,1.52,1.22,3.24,1.15,4.47-3.31-4.68-1.37-11.59-1.66-17a28.43,28.43,0,0,0,.51-6.12,107.51,107.51,0,0,0-3.82,20.16c-.14,1-1.22.36-1.65,1a10.72,10.72,0,0,1-5.62-4.6c-.94-15,7-29,4.46-44C267.83,378.64,266.46,380.3,267.62,380.66Z" transform="translate(-238.24 -324.5)"/><path class="cls-14" d="M279.5,392.83c-1.16,4.17-6.63,28.58-.87,36.57s5.47,5.48,10.37,11.52c-6.34-3.45-15-7.2-14.69-23S279.5,392.83,279.5,392.83Z" transform="translate(-238.24 -324.5)"/><path class="cls-15" d="M270.06,424a5.43,5.43,0,0,1-1.29-2l-.15-.87s1.73-13.46,3.75-17.78c1.73-3.89,1-12.67.86-22.54,2.88,4,8.21,12.17,12.17,17.57-.72,4.83-2.88,9.36-3.31,15.55-.58,8.07,5.47,16.92,14,18.36,6.12,1,12.6-2.3,16.56-3.45a75.82,75.82,0,0,1,6.62,9.07,12.26,12.26,0,0,0-1.73-.43s-19.15,2-23.47,1.73-10.58-4.9-14-9.22c-4.32-4.25-4.61-21.74-.57-32.11,2.59-10.23-.29-3.67-2.88-.58-1.16,1.44-2.67,7.85-4,14.55-1.08,3.88-2.6,12.16-2.6,12.16Zm50.12,15.63c.14.57.07.93-.29,1-1.8.14-11.09,2.8-20.09,2.88,4.25-2.67,15.12-3,19.8-3.75C319.82,439.7,320,439.7,320.18,439.63Z" transform="translate(-238.24 -324.5)"/><path class="cls-16" d="M287,400.75c-.28,8.06-5.76,18.93,0,23.83s14,6,8.28,5.4-13.46-.29-12.88-13.46,3.16-17.21,3.16-17.21Z" transform="translate(-238.24 -324.5)"/><path class="cls-11" d="M300.45,442.65l10.8,1.15s.57,2.24-9.07,1.08c-9.8-1.08-10.37-1.08-10.37-1.08S300.16,442.65,300.45,442.65Z" transform="translate(-238.24 -324.5)"/><path class="cls-17" d="M330.18,346.89l-6,1.15c-7.78.29-18.29,0-24.91-.28s-20.67-.87-20.67,4.89-4.32,9.72-7.7,9.43-14.69-.57-14.11,2.88,6.62,3.75,10.36,2.88,16.64-3.74,20.38-8.06,4.25.86,7.7.58,11.24-.58,12.82-2.24c1.73-1.72-1.87,6.84,6.91,12.6s26.14,7.13,30.67,9.15,14.33,12.38,16.64,7.2,0-8.93,2.88-10.37,8.35-16.06,5.76-16.06S360,365.83,354,363s-9.8-10.59-12.1-14S330.18,346.89,330.18,346.89Z" transform="translate(-238.24 -324.5)"/><path class="cls-18" d="M320.18,352.36c-4.61.58-3.75,18.08,6.26,21s17.5,3.67,22.39,7.41,5.47,2.88,3.75-2.88-2.6-7.7,0-5.4,2-2.59-.58-6.05-8.35-8.28-8.35-8.28-.58-5.18-1.73-6.91a9.8,9.8,0,0,0-9.43-4C327.88,348,320.18,352.36,320.18,352.36Z" transform="translate(-238.24 -324.5)"/><path class="cls-19" d="M361.58,388.08a3,3,0,0,0,.72-1c2.3-5.19,0-8.93,2.88-10.37a5.52,5.52,0,0,0,1.51-1.44,19.81,19.81,0,0,1-6.12-4.82c-1.73-2.45-1-4.9.29-6.84A11.56,11.56,0,0,1,354,363a18.9,18.9,0,0,1-2.16-1.23c-1.16.51-1.95,1.08-1.88,1.8.29,3.17,7.49,10.37,10.59,14C362.37,379.65,362.44,384.33,361.58,388.08Z" transform="translate(-238.24 -324.5)"/><path class="cls-10" d="M350,377c-.5,1.94-6-4.54-8.56-5.69s-6.05-3.46-1.44-2.88,8.56,4.9,6.55.58-2.88-6.05-.87-4.61C348.18,365.32,350.49,375.12,350,377Z" transform="translate(-238.24 -324.5)"/><path class="cls-10" d="M308.94,356.68a13.25,13.25,0,0,1,6.34-4.6c2-.58-1.44-.29-4.32.57s-5,3.17-3.67,3.17S308.94,356.68,308.94,356.68Z" transform="translate(-238.24 -324.5)"/><path class="cls-10" d="M274.6,362.66c-.58.79,7.92-4.25,8.64-9.14s-.29-3.17-2.3.57A51.38,51.38,0,0,1,274.6,362.66Z" transform="translate(-238.24 -324.5)"/><path class="cls-20" d="M291.23,356.11c-3.67,0-4.53,3.09-6.55,5.11s-10.94,4-14.33,5.18-8.93,7.49-4,8.64,11.74-5.76,11.74-5.76-6.84,10.88-4.9,13.47,4.9,5.18,6.91-2.31a47.35,47.35,0,0,1,5.76-12.88Z" transform="translate(-238.24 -324.5)"/><path class="cls-20" d="M345.66,396.21c0,.29-10.87,10.87-18.36,8.86s-19.8-7.49-25.12-5.19c-5.48,2.31-5.19,2.31-1.16,3.46s5.19,1.44,5.19,1.44-5.19,3.46-8.64,2.3-11.45.58-6.91,4.54,6.62,2.59,9.21,1.15S307,409.68,311,410s4.32,2.52,4.32,2.52,6.34-3.67,12.31-4,16.06-4.32,17.79-7.48S345.66,395.92,345.66,396.21Z" transform="translate(-238.24 -324.5)"/><path class="cls-8" d="M348.54,396.5c.58,0-3.16,10-16.63,11.16s-18.65,7.13-20.66,7.7-10.51,2-6.77,4.61,12.82-2.3,19.15-3.17,19.73-1.72,22.9-8S348,396.5,348.54,396.5Z" transform="translate(-238.24 -324.5)"/><path class="cls-10" d="M310.67,415.36c.58-1.15,11.81-4.6,16.92-5.68s11.81-1.44,14.91-4.61l4.89-4.9A39,39,0,0,1,330.47,408c-10.29,2-11.16,1.44-14.9,4S310.1,416.52,310.67,415.36Z" transform="translate(-238.24 -324.5)"/><path class="cls-21" d="M265,374.47a4.4,4.4,0,0,0,1.3.57c1.8.44,3.89-.28,5.83-1.29,4.11-5.26,7.06-5.62,7.06-5.62L274.6,377s-4,5.47.58,4.32,4-7.13,6.33-10.87.87-5.76-3.45-4.9-4,1.73-5.4,5.47S268.41,374.76,265,374.47Z" transform="translate(-238.24 -324.5)"/><path class="cls-21" d="M302,400c-5.33,2.23-5,2.23-1,3.38.58.14,1.08.29,1.59.43,2.16,0,4.68.15,7.2.15,4.32,0,4.61-.29.86-1.73s-4.17-.29-6.77-.29c-2.08,0-2.3-.72-1.87-1.94Zm-12.74,9.64a3.78,3.78,0,0,0,1.37,2c4.6,4,6.62,2.59,9.21,1.15.43-.21.87-.43,1.37-.65a3.09,3.09,0,0,1,.36-.5c1.44-1.66,13.1-3.38,7.06-3.67s-9.08,3.09-12,3.38A10.73,10.73,0,0,1,289.29,409.6Z" transform="translate(-238.24 -324.5)"/><path class="cls-22" d="M307.29,360.93c0,2.88,2.52,12.39,17.42,15.48s19.8,5.76,22.68,7.2,12.89,4.32,8.93,5.19S346.53,392,343.07,393s4.61,10-9.72,10.88-32-6.63-37.22-17.72-8-13.46-3.46-19.22,2.88-6.05,7.49-6.34A28,28,0,0,1,307.29,360.93Z" transform="translate(-238.24 -324.5)"/><path class="cls-5" d="M301,391.68c-.28-.29-11.16-12.68-5.76-13.83s19.73,6.63,27.8,10.95,13.46,12.24,6.84,13.1-17.5-1.44-23.69-4.9S301.31,392,301,391.68Z" transform="translate(-238.24 -324.5)"/><path class="cls-23" d="M302.46,359.49c-2.3,5.76-3.45,11.52,7.06,18.07,10.66,6.63,11.81,6.63,11.81,6.63s-6.34-6.34-9.51-12.6,3.75,4.32,10.08,8.28,9.15,2.88,13.18,4-2-2.88,2.59-.58,11.74,5.76,14.33,6.05a17.2,17.2,0,0,0,4.32,0s-14.9,5.11-16.06,6.55,1.66,4.25,1.66,4.25-6.26,4.61-10.87,3.75,2.88-1.44,4.61-2-.29-1.73-3.46-1.73-6.91-2.3-6.91-2.3,13.82-.87,7.49-1.66S317,390.52,309.23,383s-10.8-13.47-10.51-9.15,4.9,10.3.29,6-5.19-9.15-6.91-7.42-.29,5.69-.29,5.69-5.4-3.67-3.39-8.57a22.41,22.41,0,0,1,6.56-8.35Z" transform="translate(-238.24 -324.5)"/><path class="cls-24" d="M349.41,391.39c-2.31.86-5.47,1.44-5.19,4s-2,6.84-4.24,7.41.57-4.6-2.6-4.6,2.6-2.81-.57-4.25-11.23-4,.86-3.1S349.41,391.39,349.41,391.39Z" transform="translate(-238.24 -324.5)"/><path class="cls-24" d="M299.87,360.64c-.57,3.46-1.44,10.95,7.13,18.65s-4,.87-8-3.38-10.3-7.78-8.07-12.67S299.87,360.64,299.87,360.64Z" transform="translate(-238.24 -324.5)"/><path class="cls-18" d="M257.68,363.24c4.32,0,16.06,3.16,22.1-1.16s13.47-12.31,13.47-9.14-.29,4.61,3.17,3.46,5.47-3.75,5.18-1.73,2,3.74,6.48,2.3c4.61-1.44,8.93-6.05,10.66-6.33s-8.36,0-11.74.57-12.89.87-16.63-1.44-7.13-1.44-9.72,2.88-4.61,10.59-9.72,9.72-6.63-1.73-9.79-1.44S257.68,363.24,257.68,363.24Z" transform="translate(-238.24 -324.5)"/><path class="cls-25" d="M373.24,362.37l-.86,1.15-3.75,10.37s3.75-2,4.61-5.18A13.6,13.6,0,0,0,373.24,362.37Z" transform="translate(-238.24 -324.5)"/><path class="cls-13" d="M256.89,331.84l5.47,5.26c1.87.07,3.24,2.38,5,3.38l.57,1.44c-3.81-1.29-6-5.18-9.14-7.41.58,2.16,3.24,3,4.25,5.25-1.15.29.36,2.6-1.3,1.52-.36-.44-.57-.44-1.08-.22.15.22.43.29.36.5a5.88,5.88,0,0,1-3.24-1.8v-.64c.94-.29.79,1.29,1.59.79l-.8-1.44c.87-.15.15-.72.8-1v-.94a64.88,64.88,0,0,1-6.77-9.72l.21-.5C254.22,328,255.23,330.26,256.89,331.84Z" transform="translate(-238.24 -324.5)"/><path class="cls-13" d="M245.51,335c.58-.36-.14-1-.14-1.51a27.71,27.71,0,0,1,5.76,5.47c-1.37-.36-2.59-1.87-3.82-3,.36,1.94,2.23,3.6,3,5.54a.54.54,0,0,1-.51.22c-1.08-1.15-1.29-3.31-2.81-3.67,1.44,2.81,3.75,5.18,4.47,8.13h-.58a25.71,25.71,0,0,0-4.1-6.76c1.29,3.16,3.67,5.9,4.68,9.21-2.88-4.75-5.76-10.08-10.3-13.82.58-.43,1.08.65,1.51.36-.07-.36-.57-.79,0-1.08.58.14,1,1.15,1.52.86l-1-1.29C243.93,333.14,244.72,334.29,245.51,335Z" transform="translate(-238.24 -324.5)"/><path class="cls-13" d="M240.26,335.3c4.32,4.39,8.13,9.29,9.07,15.19.57.15.86,1.23,1.58.87.51.57,1.37.64,1.51,1.65l.72-1.08c.8.29.29,2,1.44,1.66.51.93-.14,2-.14,2.66l2.3-2.45c-1.15,3-3.38,4.68-5.61,6.7a6.64,6.64,0,0,1,1.15-2.09l-.5-3c-.29,1-.22,2.09-.51,3.1-.57-.15-.65-1-1.65-.65a30.64,30.64,0,0,0-9.8-22.61Z" transform="translate(-238.24 -324.5)"/><path class="cls-13" d="M272.08,342.36c-.22,0-.36,0-.5.21,3.45,3.67,1.51,10.23,5.25,13.83-.36.36-.93.14-1.29-.15-2.45-2.81-2.09-6.91-3.46-9.86-1.94.65-2.95,2.73-4.75,3.81-.36-1.58,2.23-2.08,2.3-3.52-1.94.57-2.95,2.73-4.68,2.95l2.95-2.95c-2.23.07-3.24,3.09-5.76,3.16,1.37-2.59,5.26-3.31,6.48-6.26-4,1-5.9,5.54-9.57,7.2.36-1.08,1.8-1.15,2.52-2.23C264.45,345.38,267.69,341.71,272.08,342.36Z" transform="translate(-238.24 -324.5)"/><path class="cls-13" d="M342.42,347.83c1.73,2.52,2.31,5.47,3.24,8.28.36-.15.08-.58.15-.87,1,.29.72,2.24,2.16,2a78.81,78.81,0,0,1,7.56,15.19c-.58.94-1-.57-1.44-.5l-5.76-9.79c1.29,5,4.25,9.14,6.26,13.89-3.81-6.19-8-12.6-10.73-19.44,1.73-.72-.5-1.58-.5-2.66.29-3.1-2.66-4.83-5-6-5.18-2.59-11.45.22-15.77,3.67.08-1,1.8-1.51,2.31-2.59-5.91-1.8-12-.86-18.15-.86a21,21,0,0,0-6.69,4c-1.08-.22-.58-1.51-.79-2.16a21.23,21.23,0,0,1,5.25-3.1l.15.94,1.51-.43C319,350.92,330.47,341.13,342.42,347.83Z" transform="translate(-238.24 -324.5)"/><path class="cls-13" d="M298.07,346.53,298,348c-2.66-.21-4.82,1.95-7.78,1.37l-.64-1.51a21.71,21.71,0,0,0-10.59,4.1,9.8,9.8,0,0,1-4.61,10.44c-3.45,1.08-6.62-1.08-9.57-1.65,3.31-.44,5.54,2.3,9.07.86,1.94-.79,3.38-2.74,4.32-4.46.65-2.31-.86-4.4.58-6.12,4.89-4,11.8-3.68,17.71-4.76C296.92,346.53,297.64,346.24,298.07,346.53Z" transform="translate(-238.24 -324.5)"/><path class="cls-13" d="M299.73,347.83a7.16,7.16,0,0,1-3.24,2,8,8,0,0,1-4.11.36C294.47,350.06,297.35,348.76,299.73,347.83Z" transform="translate(-238.24 -324.5)"/><path class="cls-13" d="M339.69,350.35c2.73,2.73,3.09,7.13,2.37,10.73-.43,3.24-3,4.46-5,6.69-4.18,1.44-9.72,2-13-1.65a8.85,8.85,0,0,1-3.53-7.06c.29-4.39,2.88-7.2,6.48-9.58C331.12,348.12,336.09,347.76,339.69,350.35Z" transform="translate(-238.24 -324.5)"/><path class="cls-26" d="M340.55,352.8c1.87,3.81.94,7.77-1.15,11.23a9.44,9.44,0,0,1-8.71,3c-4.11-.58-7.35-4.61-8.28-8.21-.79.72-.43,2.52-.29,3.6-1.37-2.59-.5-6.33,1.15-8.78a13.16,13.16,0,0,1,12.31-4.25C337.31,349.84,339.62,350.78,340.55,352.8Z" transform="translate(-238.24 -324.5)"/><path class="cls-13" d="M315.21,352.8c-2.81,1.29-5.4,4.39-5.83,7.27-.44-3.1,2.37-6,4.82-7.27.43.07.65-.22,1-.36Z" transform="translate(-238.24 -324.5)"/><path class="cls-13" d="M293.54,353.16c-.8,1.44.07,2.8-.36,4.32h1.15l-.51.43c.22.5,1.08.36,1,1.15.65-.58.36-1.87,1.51-1.94-.07.21.22.36.29.43.36-1.3,2.23-1.87,2.67-2.88,0,1.44-1.23,2.52-1.52,3.89-1.22,7.27,1.44,14.76,5.62,20.3-3.46-3-5.11-7.42-6.26-11.59-.87,1.29,1.08,2.81-.51,3.67a19.71,19.71,0,0,0,7,13c-.08.29.07.58-.22.72a27.3,27.3,0,0,1-9.72-19.94l-1.51,3.09c-.43-.07-1-.57-1.08.22-.22,2.16-.29,4.75-1.23,6.91h-.5v-7.27c-3.67,6.12,2.09,10.73,4.61,15.48,4.17,4.53,8.06,9.72,11.88,14.11,6.48,1.66,12.74,4.82,19.08,6.62,5.54-.36,12.81,1.37,17.13-4.68.36-.07.44.15.65.36-.29.15-.14.44-.21.72-4.9,5-12.1,4.68-18.72,4.11a27.85,27.85,0,0,0-11.6-3.31,1.61,1.61,0,0,1,.72-.58c-1-.14-2.44-1.37-3.31-.22.22.51.94.22,1.3.22-3.82.58-8.28-1.8-11.74.94.15.93-.36.79-.36,1.44.94.64,2.23.64,3.31,1.29-1.51-.14-3.52-.14-4.68-1.65l-.93-1.8-.51.14a60.46,60.46,0,0,1-4.82-4.46c-.36-.29-.72.5-.94.07,1-.15,2.16-1.59,3.32-.58-1-1.08-.44-2.16-1.37-3.17l.5-.36c-1-2.16-2.95-4.46-3.6-7.05.36,0,.72-.58.29-.79l-.5-.58c.21-.07.36-.36.72-.29,1.58,2.59,3.74,5.47,6.55,6.27-1.8-1.3-1.95-3.32-2.95-5.12l1.51,1.88.79-.87a50.35,50.35,0,0,1-9.07-14.47,18.43,18.43,0,0,0,.36-3.17c-.65,1-1.8,1.66-2.38,2.81a33.12,33.12,0,0,0-2.95,6.77l1.66,1.65c.43-.79-.8-1.72-.15-2.16a19.26,19.26,0,0,0,5,5.26c-1.87.22-3.17-2.23-4.46-3.46v.8l3.6,4.82c-.51.5-1.08-.29-1.37-.72.07,1.37,2.09,2.3,2.23,3.53-.36.43-.72-.15-1-.22-.43.65,1.51,1.44.15,1.87l1,1.3c-.5.79-1,0-1.29-.36,0,.79.79,1.66.93,2.66-.21-.07-.28.22-.5.36,3,2,.22,3.6,2.52,6.12-2.23-2.37-3.82-6.26-6.48-8.92,2.09,5.18,6,9.5,7.92,14.54-3.38-5.18-6.48-10.73-10-16.06l-2.52-2.08c.29-.51,1.08-.36,1.23-1.08-.72.21-2.16.36-3.17.57-1.73.22-3.46.43-4.32-1.51-1.95-5.69,4.17-8.93,5-13.82l-.29-.36c-1.51,1.94-3.24,4.6-5.62,5.4-.86-1.59-1.58,1.58-2.95,1.08-.72,1.36-1.73-.22-2.45-.22-.65-1.87-4.25-2.74-2.66-5.33,2.52-1.08,4-3.24,5.9-5.25.22.07.58-.15.65.21l-.65.65.36.29c-2.45.93-2.88,4.68-5.61,4.68-.58.79.14,1.58.5,2.23a5.55,5.55,0,0,0,3.6,1.87c.86-.79,1.44-2.37,2.59-2.45,1.3.51,1.87-1.87,3.17-1.65,1.3-1.51,3.17-2.38,4.68-3.6.36,6-7.06,9.72-5.47,16.13.43,1.08,1.58,1.22,2.81,1.08-.87-.87-2.52-2.6-1.8-4.47.5.29.43,1.73.93,2.52.79.51.94,1.51,2,1.37.57.79,1.94-.14,2.95-.22.43-.5-.86-1.15,0-1.65,1.44,1.58,2.45,3.53,4,5.11-.5-2.16-3.17-3.82-3.53-6.26-1.22-1.16-.07-2.45,0-3.89.94-3.75,3-6.91,4.83-10.3-.94.29-.22-1.08-1.3-.79-.43-1.3,2.23-1.51,1.94-2.81-.07-.57.44-1.44-.21-1.65C288.35,359.42,290.73,355.89,293.54,353.16Z" transform="translate(-238.24 -324.5)"/><path class="cls-13" d="M314.85,353.8a19.59,19.59,0,0,0-3.6,4.76C311.18,356.54,312.9,354.67,314.85,353.8Z" transform="translate(-238.24 -324.5)"/><path class="cls-13" d="M310.53,354.31c-.51.93-2,1.73-1.44,2.95-1.95.79-1,3.6-1.44,5.11,3.31,9.29,14,12.24,22.32,15,8.85,1.22,16.7,4.75,24.26,8.93l2.81.14c-2.3,1.08-4.9-.5-6.91-1.15,1.44,1.15,3.45,1.73,5.11,2.66-3.67-.36-6.48-2.88-9.72-4.32-8.28-3.53-17.5-3.89-25.56-7.56,8.21,2.45,17.64,4.11,25.56,6.7-6.55-3.89-14.18-3.6-21.1-6.55a31.88,31.88,0,0,1-15.84-9.87,9.87,9.87,0,0,1-1.29-7.92c-.87,1.08-2.81.65-4.25,1a33.51,33.51,0,0,0,.58,7.2c-1.37-1.94-1.16-4.61-1.37-6.91-1-.07-.15,1.08-.65,1.51a33.42,33.42,0,0,0,.94,6.91c-.51-.07-.87-.93-.94-1.51-.22-3-1.22-5.4.5-7.78C305.7,359.28,308.51,356.25,310.53,354.31Z" transform="translate(-238.24 -324.5)"/><path class="cls-13" d="M352.43,362.52c.29-1.16-1.15-2.09-1-3.46,1.16,1.3,1.66,3.31,2.81,4.82.29-1.22-.57-2.44-.79-3.6,1.08,0,.58,1.52,1.58,1.59.72,1.37.72,3.09,1.52,4.46-.36.79-.87-.07-1.3-.21-.72.72.29,1.51.14,2.37-2.3-3.53-4.53-7.49-6.76-11.23l.36-.5Z" transform="translate(-238.24 -324.5)"/><path class="cls-13" d="M374,360.36c-5.33-1.59-11.09,2.44-16.77,2.95C362.51,361.87,368.2,357.91,374,360.36Z" transform="translate(-238.24 -324.5)"/><path class="cls-13" d="M300.59,359.71a24,24,0,0,0,.79,9.43c-1.08-.22-.5-1.73-1.15-2.3a18.24,18.24,0,0,1-.14-7.13Z" transform="translate(-238.24 -324.5)"/><path class="cls-13" d="M258.54,361.22c-.79.43-2.23,1.94-2.08,3.46a1.26,1.26,0,0,0,.64,1.44c.44-.15,1.23-.15.94-.94a4.71,4.71,0,0,0,4.1.65c-.86-.36-2.59.21-2.59-1.15,3.46,1.15,6.91-.8,10.23-.22-.51.86-2.24.43-2.31,1.51-3.81.79-8.42,4.47-11.52,0a4.53,4.53,0,0,1,.79-4c-.72-.72-2.8-.72-3-1.65C255.52,360.28,257,361.94,258.54,361.22Z" transform="translate(-238.24 -324.5)"/><path class="cls-13" d="M299.15,360.72c.36,3.74.29,7.27,1.87,10.36-2.44-2.52-1.94-6.91-2.23-10.36Z" transform="translate(-238.24 -324.5)"/><path class="cls-13" d="M372.52,361.22a29.68,29.68,0,0,1-5.26,14.33c2-.58,3.68-2.81,4.61-4.75,1.51-3,3.1-5.91,2-9.22h.57c1.3,4.39-1.65,8.42-3.6,12.17l-4.46,3.74c.65.43-.29,1,0,1.66.36,3-1.22,6.33-3.38,8.85-2,.65-4.18,2.52-6.34.94.72-.94,2.16.58,3.17-.36-.79-1.15,2-1.66,2.81-2.81.93-.72.86-1.94,1.29-2.81a5.63,5.63,0,0,0-2,2.81l-.94-1c-.5.51-.5,1.88-1.51,1.66.79-3.46,3.81-5.76,6-8.21-2.16.65-3.67,3.75-5.47,4.75.36-2.52,2.81-4.24,5-5.61-1-1.44-.79-3.24-.79-5.11a6.76,6.76,0,0,0-.58,5.25c-.86-.14-.79-1.58-1.73-1.8,0-.57-.28-1.8.29-2.45.65.22.07,1.3.51,1.8a40.15,40.15,0,0,1,1.15-4c1.73.58,1.29-1.87,2.3-2.59-.57,2.52-1.87,5.62-1.15,8.86,1.37-.72,1.51-2.67,2.81-3.75,3-3.6,2.23-7.12,3.45-11.44-.07-.51-.57-1-.36-1.44C371.8,360.5,371.73,361.72,372.52,361.22Z" transform="translate(-238.24 -324.5)"/><path class="cls-27" d="M324.14,364.39c-.72-.36-.8-1.3-.87-2Z" transform="translate(-238.24 -324.5)"/><rect class="cls-28" x="56.45" y="40.46" width="0.14" height="2.02"/><path class="cls-27" d="M330.83,368c-2.09-.22-4.17-.94-5.25-2.67C327.09,366.91,329.18,366.91,330.83,368Z" transform="translate(-238.24 -324.5)"/><rect class="cls-28" x="57.74" y="41.18" width="0.14" height="3.6"/><path class="cls-29" d="M261.35,367.2c-1.15-.15-2.09.21-3-.36Z" transform="translate(-238.24 -324.5)"/><path class="cls-13" d="M327.38,392.68c-7.56-.5-13.32-6.84-19.16-11.37-.93-1.73-3-2.31-3.31-4.11C311.25,383.61,318.74,390.74,327.38,392.68Z" transform="translate(-238.24 -324.5)"/><path class="cls-13" d="M321.62,387.57c.72.15,1.87-.14,2.16.43-3.82.22-7.13-3-9.58-5.68C316.72,384.26,318.81,386.35,321.62,387.57Z" transform="translate(-238.24 -324.5)"/><path class="cls-13" d="M323.92,386.64c-2.3.5-4.82-1.52-6.12-3.32C319.67,384.4,321.69,386.49,323.92,386.64Z" transform="translate(-238.24 -324.5)"/><path class="cls-13" d="M324.14,389.73c-4-.5-7.49-3.38-10.88-5.61l-.36-.65A46.71,46.71,0,0,0,324.14,389.73Z" transform="translate(-238.24 -324.5)"/><path class="cls-13" d="M339.26,386.71c.28-1.23,1.29-.22,1.94-.29l4.82,2.66.36-.36c-.36-.36-1.15-.57-1.08-1.15.87-.29,1.44.72,2.16,1.15l.36-.72c1.3.72,2.67,1.88,4,2,1.44.14,2.88-1.51,4-.94a39.28,39.28,0,0,1-11.88,4.11c-.21.36-.79.36-.86.79.5.36,1.37-.58,1.73.22-2.88,1.8-6.41,2.23-9.58,2.52-.57-.36-1.73-.22-1.87-1.08a9.62,9.62,0,0,0,7.13-1.3c-3.17-2-7.92,0-10.87-3.17a23.24,23.24,0,0,1,3.16.87,15.1,15.1,0,0,0,3.1-.15c-.43-.79-1.51-.21-1.66-1.15,1.16-.36,2.45,0,3.82-.36-1.3-1-3.24-.94-4.32-1.3.86-.79,1.94,0,3,0l4.68,1.3c-2.52-2.45-6.26-3.17-9.5-4,.72-.72,2.38-.14,3.46.22l5.61,2.3c-1.37-1.37-3.89-2.74-5.61-4C336.52,384.48,338,386.2,339.26,386.71Z" transform="translate(-238.24 -324.5)"/><polygon class="cls-29" points="41.62 60.91 42.05 60.48 43.06 61.92 41.62 60.91"/><path class="cls-7" d="M341.06,388.94l2.66,1.44Z" transform="translate(-238.24 -324.5)"/><path class="cls-29" d="M298.79,397.08c-2.81-1.44-5.18-5.33-7.13-7.64Z" transform="translate(-238.24 -324.5)"/><path class="cls-13" d="M347.68,394.7c-2.88,3.24-7.13,4.54-10.87,6.48-.22-.07-.15-.29-.15-.5,1.66-1.16,3.68-1.59,5.4-2.81a7.41,7.41,0,0,0-4.46,1.51l-.36-.29c2.74-2.73,7.42-1.65,10.08-4.75Z" transform="translate(-238.24 -324.5)"/><path class="cls-13" d="M350.27,397.22c2.45,3.24.22,6.26-.5,9.43-.94,2.81-3.75,3.46-5.76,5.4,4.46,1.23,10.29.07,14.33,3.53a4.85,4.85,0,0,1,1.87,5.26c-1.51,2.8-2.67,6.19-5.62,8.06-2.45.07-5,.72-7.13.29,2-.87,4.68-.43,7.13-1,2.16-2.45,4.39-5.18,5.11-8.35a5.33,5.33,0,0,0-1.36-3.46c-3.17-3.6-7.71-1.44-11.81-1,1,.65,2.88.08,3.45,1.16-3.38.86-7.2-.36-10.36,0,.93.64,2.3.57,3.09,1.29-.29.65-.72.15-1.15.22-.36,1,.22,1.51.86,1.94l-2,.15c.79,1.08,3-.15,3.17,1.65-1.52.65-3.68.22-5.19.36,1.66.94,4.47,0,5.62,1.51-1.87-.57-4.68,1.16-6.55-.86-2.38.43-2.31-1.94-4.32-2.52v-.43l-3.75-1a3.91,3.91,0,0,0,.94,4.61c.5-.79-.43-1.23,0-2.16,1.22.86.57,2.81,2,3.67.15-.94-.93-1.8-1-2.81.79-.29,1.87-.21,2.16.65-.22.43-.36,1.3.14,1.66a4.85,4.85,0,0,1,2.45,3.31c-.51.5-1.44-.29-1.95-.22-3.09,3.89-8.06,2.59-11.88,5-.5.72-1.8,1.8-.79,2.81a3.42,3.42,0,0,0,3.46.86c1.22-1.44,3-3.09,5-3.38,1.37.93,2.73-.22,4.32.36-.07.43-.65.72-1.15.79.36.5,1.15.5,1.29,1.08-1.44.07-2.88-1.51-4.53-.72-1.95.86-3.17,2.23-5,3.31-1.8-1.29-4.32.29-5.47-2.16.57-1.65-1.88-3.24.21-4.89,3.89-4.32,8,2.08,12.17-1.66.5-.72,1.44-1.08,1.3-2l-2.67-1.94c-.43.43.65.86.22,1.3a3.39,3.39,0,0,1-1.66.36c-.29-.22-.43-.65-.79-.72-.29.21-.58.64-.22.86-1.36.5-2.37-1.37-3.45-1.15-1.8-3-4.75-5.83-7.13-8.43-1.37.15-1.15,1.3-1.94,2.16-1.23.65-2.38,1.66-3.6,2.45.07.22.5.22.14.51-2.38,1.8-4.68.64-7,1-.36-.28,0-.79-.51-1-.14.36-.43.14-.72.21a13.77,13.77,0,0,1-1.73-5c1.59-1.29,3.68-1,5.55-1.51-.58-1.65,1.51-.93,1.58-2.3,1.66-.43,2-2.16,3.17-2l.65-1.15c-5.33-1.15-10.8,1-15.27,4-2.23.07-3.74-2.3-5.76-2.09-1.22-.72-1.65-2-2.16-3.17-.72.36,0,.94,0,1.3-.79-.22-1.15-1.51-1-2.59-.44-.79.79-1,.86-1.66-.5-.36-1.08,0-1.44.36l-.58.79a1,1,0,0,1-.14-1.44c5-1.65,10,1.08,15.34.08a1.56,1.56,0,0,1,.79-2.24c1.44.8,1.08-1.51,1.8-1.51.93.36.36,1.37,1.08,1.51l.21-1.15c1.16,0,.36,1.95,1.8,1.44a7.67,7.67,0,0,1-6.69,3.17c-3.6-.86-7.27-.5-10.8-1.22l1.08.57c-1-.21-1.37.79-1.66,1.66-.5,1,.87,1.37.58,2.09a1.59,1.59,0,0,0,1.44.86c.72-.79,1.44-1.58,2.66-1.3,1,.58,1,.94,1.59,2,.72.36,2.16-1.73,2.37,0a6.76,6.76,0,0,0-2.23,1.65c5.33-2.37,11.81-5.4,17.93-3,.86,1.08-.15,2.45-.51,3.38-3,1.59-6.4,3.6-10.15,3.24-.57.44-1.94.44-1.29,1.44a2.39,2.39,0,0,1,1.8.36c.79,0,1.29-.72,2.08-.5.15.29.15.65.51.86.72-.21,1.22-.93,1.94-1.15.36.43-.21,1.37.87,1,.64-.65.93-1.22,1.8-1.51,0,.21-.15.57.14.72l1.44-1.23c.43,1-1.3,1.37-.94,2.16,3.6-2.23,7-5,11.24-5.76v.65c-1.52-.29-2.88.87-4.11,1.59,3.75-1.08,7,3.52,10.66,1.22a2.08,2.08,0,0,1-.65-1.44A3.31,3.31,0,0,0,332,415c-2.3-.28-4.89.51-7.27.36,5.47-1,11.88-1.65,17.71-3.31a10.74,10.74,0,0,0,3.24-2.09c-1.94.15-4,1.59-6,2-.07-.51.36-.79.72-1l-2.31-.14c.15-1.66,2.6-1.23,3.6-2.31-.21-.72-1.29.15-1.29-.86.65-.65,1.15-.51,2-.29a9.71,9.71,0,0,0,4.9-2.52c-1.51-.29-3.1.29-4.46.5.28-.93,1.51-.79,2.16-1.44,1.08-2.08,3.38-3.31,3.45-5.83l1.15-.14-.64-2.38C349.91,395.42,349.84,396.64,350.27,397.22Z" transform="translate(-238.24 -324.5)"/><path class="cls-13" d="M278.34,402.19c-2.44,7.34-2.16,14.69-2.16,23.11a6.93,6.93,0,0,0,.65,1.94c.79-6.12-.29-12.67,1.51-18.79h.44c-.29,2.95-1.16,6.48-1.3,9.94l.36.57.79-5.76c.29-.07.36.22.51.36a77.35,77.35,0,0,0-.58,13l.94-11c.28-.22.43-.14.64.14-.07,3.17-.79,6.63-.28,9.72.57-3,.72-5.83,1.15-8.78h.43c-.14,3.74-.94,7.27-.65,10.58.72-2.23.43-4.89,1.37-6.62.07,2.88-1,7.2.29,9.72-.72-.79-.94-2.16-2.31-2.16.15,1.44-1.8,0-1.51,1.51-1.37.65-.5-1.94-1.94-1.37-2.16-6.76-.72-12.6-.72-19.72C276.83,406.44,276.9,403.7,278.34,402.19Z" transform="translate(-238.24 -324.5)"/><polygon class="cls-29" points="107.06 90.22 110.59 89.42 112.68 89.42 107.06 90.22"/><polygon class="cls-30" points="93.96 90.36 98.57 89.57 98.86 89.57 93.96 90.36"/><path class="cls-13" d="M317.44,432.5c-1.37-2.88-4.32-5.69-6.19-7.92l.14-.5C313.55,426.6,316.65,429.19,317.44,432.5Z" transform="translate(-238.24 -324.5)"/><path class="cls-13" d="M345.66,430.34c-1.65,5.33-2.88,11.09-5.25,16-.07-1.22,1.22-2.52.79-4a22.44,22.44,0,0,1-1.8,3.53c.22-2.88,2.81-5.4,2.66-8.42l-1.29-1c-1.95.58-3.46,2.09-5.19,3.1,1,1.15,1.52,2.52,3,3.16-.08.44-.65.36-1.08.36-.08-.36-.51-.57-.65-.86,1.15,1.73-1.15,2.59.07,4.25-.79,1-.86,2.37-1.3,3.17a10,10,0,0,0,1.88,2,3.53,3.53,0,0,1,1.94-2.95c.14.79-1.51,1.58-1,2.95.87,1.15,2.23,1.15,3.53,1.3a3.76,3.76,0,0,0,2.23-1c-.93-.72.94-1.22,1.08-1.94a4.5,4.5,0,0,0-2.52-.36c2.59-4,3.82-8.93,5.26-13,.36-1.72-1.15-3.16-1.59-4.24a4.17,4.17,0,0,1,2.09,2.44c.07,1-.36,2.6.94,2.67-2.09,1.87-1.23,4.61-1.3,7a88.35,88.35,0,0,0,14,14.33c.94.87.87,2.23,2,3.31-1.08-.5-2.31-.57-3.53-1.15.29.58-.43.22-.65.36-1.08-1.22-2.09-2.88-3.45-3.31,1.15,1.87,3.09,3.31,4,5.26H360l-9.21-11.24c-1,.08-1.37-1.22-2.16-1.72l.21-.58c1.51,1.51,3.6,2,5.26,3.17.86.57,1.08,1.73,2.16,1.94-2.31-3.31-5.47-6.26-8.28-9.36-1.23,3-1.37,7-5.26,8.07-1.58.5-2.81-.8-4.32-.8l.36.94c3.82,5.11,8.64,9.43,12.31,14.76-6.48-6.41-12.74-13.82-19.44-20.38-.93-2.16.22-5.11,1.88-7.05,1.51-2.52,4.1-3.82,6.55-5.11v-.65c1.65-1.51,4.1-2.88,4.68-5-.43-1.08-2.16-.5-1.73-1.8A4.06,4.06,0,0,1,345.66,430.34Z" transform="translate(-238.24 -324.5)"/><path class="cls-29" d="M325.07,430.56c-.36.43-1.22.43-1.8.57C324,430.92,324.21,429.91,325.07,430.56Z" transform="translate(-238.24 -324.5)"/><path class="cls-13" d="M314.7,432c-.21.14-.14.36-.14.5l-5.33,1.3c2.09.57,4.39,0,6.63,0v.72a23.46,23.46,0,0,0-7.92,1.8c2.66-.29,5.68-.8,8.56-1.16v.44a56.28,56.28,0,0,0-6.26,1.65c1.08.51,2.52-.07,3.82-.14.64.29,2,0,2.08,1-7.84.43-15,5-23,2.59-1.23-.94-3.39-.51-4.11-1.73,3.53-.86,6.19,1.58,9.72-1.08-.29-.22-.72,0-.79-.43l1.44-.36-.5-.51c.72-.64,2.16-.21,2.44-1.29,4.11-1,7.92-2.31,12-3.46Z" transform="translate(-238.24 -324.5)"/><path class="cls-13" d="M281.8,436.32c9.79,11.23,24.7,3.38,36.72,4.32-9.86-.8-20.45,5.68-30.46.79-3-.94-5-2.88-7.27-5.47V434.3C281.44,434.73,281.44,435.6,281.8,436.32Z" transform="translate(-238.24 -324.5)"/><path class="cls-31" d="M306.57,435.6a18,18,0,0,1-6.63,1.36C302.32,437,304.19,435.52,306.57,435.6Z" transform="translate(-238.24 -324.5)"/><path class="cls-13" d="M332.49,436.75c-1.3,5-9.51,3.81-8.93,9.57a1.25,1.25,0,0,1,.58,1c-.72.15-1.3-.79-1.37-1.44a3.83,3.83,0,0,0,0,2.23c.21.29.93.29.79.87a1.56,1.56,0,0,1-1.66-1.15c-.86.72.36,2-.14,2.52.94,1.51,2.59-.29,3.82.28-.87,1.08-2.52,1.08-3.68.87-1.44-.58-2.08-1.95-2.95-3a4.11,4.11,0,0,1,.51-3.31,11.72,11.72,0,0,1,5.61-2.95C327.45,440.35,330.26,438.69,332.49,436.75Z" transform="translate(-238.24 -324.5)"/><path class="cls-13" d="M319.31,443.44c-5.25,1.88-12.38.15-18.07,1.44l-1-.5a2.92,2.92,0,0,1,3.17-.86,111,111,0,0,1,15.55-.65Z" transform="translate(-238.24 -324.5)"/><path class="cls-32" d="M337.82,365.47a9.77,9.77,0,0,1-7.13,1.51c-4.11-.58-7.35-4.61-8.28-8.21-.79.72-.43,2.52-.29,3.6-1.37-2.59-.5-6.33,1.15-8.78a13.09,13.09,0,0,1,4.9-3.53c-4.47,4-6,17.14,5.47,16.06A31,31,0,0,0,337.82,365.47Z" transform="translate(-238.24 -324.5)"/><path class="cls-25" d="M333.5,364.68a7.46,7.46,0,1,0-7.35-7.42A7.39,7.39,0,0,0,333.5,364.68Z" transform="translate(-238.24 -324.5)"/><path class="cls-33" d="M334.36,363.24a6.3,6.3,0,1,0-6.19-6.27A6.26,6.26,0,0,0,334.36,363.24Z" transform="translate(-238.24 -324.5)"/><path class="cls-34" d="M334.07,360.64a4.86,4.86,0,1,0-4.75-4.82A4.82,4.82,0,0,0,334.07,360.64Z" transform="translate(-238.24 -324.5)"/><path class="cls-35" d="M333.42,359.78a2.7,2.7,0,1,0-2.66-2.74A2.72,2.72,0,0,0,333.42,359.78Z" transform="translate(-238.24 -324.5)"/><path class="cls-13" d="M335.58,351.93a28.88,28.88,0,0,1-5.9,12.1c-.65.14-1.3.36-1.94.43-1.44-3,.14-7,2.16-9.72,1.87-1.22,2.73-2.81,4.75-3.74Z" transform="translate(-238.24 -324.5)"/><path class="cls-29" d="M329.68,360.5c-.14-.29-.36-1-.86-.79-.36-1.44,1.94-1.51,2.52-3.31Z" transform="translate(-238.24 -324.5)"/><path class="cls-10" d="M279.35,355c-2.09,3.89-4.17,8.06-8.42,7.34-4-.65-5.83-1.29-7.85-1.44,4.75,2.95,9.65,1.87,10.94,2.31,1.73.57,6.34-4.83,6.05-6.56A8.59,8.59,0,0,0,279.35,355Z" transform="translate(-238.24 -324.5)"/></svg>